<svg width="148" height="48" viewBox="0 0 148 48" fill="none" xmlns="http://www.w3.org/2000/svg">
<g clip-path="url(#clip0_2043_534)">
<rect width="148" height="48" rx="24" fill="url(#paint0_linear_2043_534)"/>
<rect width="148" height="48" rx="24" fill="url(#paint1_linear_2043_534)" fill-opacity="0.4" style="mix-blend-mode:soft-light"/>
<rect width="148" height="48" rx="24" fill="url(#paint2_radial_2043_534)" fill-opacity="0.2" style="mix-blend-mode:overlay"/>
<rect width="148" height="48" rx="24" fill="url(#paint3_radial_2043_534)" fill-opacity="0.7" style="mix-blend-mode:overlay"/>
<rect width="148" height="48" rx="24" fill="url(#paint4_linear_2043_534)" fill-opacity="0.1" style="mix-blend-mode:plus-lighter"/>
<g style="mix-blend-mode:soft-light" filter="url(#filter0_f_2043_534)">
<ellipse cx="74" cy="-9.5" rx="98" ry="19.5" fill="url(#paint5_radial_2043_534)"/>
</g>
<g filter="url(#filter1_d_2043_534)">
<path d="M40.62 29.5V18.62H42.172V28.028H46.748V29.5H40.62ZM51.0994 29.628C50.3527 29.628 49.6807 29.4787 49.0834 29.18C48.4967 28.8707 48.0274 28.444 47.6754 27.9C47.3234 27.3453 47.1474 26.7 47.1474 25.964C47.1474 25.26 47.318 24.6307 47.6594 24.076C48.0007 23.5213 48.4594 23.084 49.0354 22.764C49.6114 22.4333 50.2567 22.268 50.9714 22.268C51.654 22.268 52.278 22.4333 52.8434 22.764C53.4087 23.084 53.862 23.516 54.2034 24.06C54.5554 24.604 54.7314 25.2227 54.7314 25.916V26.364H48.3154V25.212H53.1794C53.094 24.7427 52.8487 24.348 52.4434 24.028C52.038 23.6973 51.5527 23.532 50.9874 23.532C50.5287 23.532 50.1287 23.6387 49.7874 23.852C49.4567 24.0547 49.2007 24.3373 49.0194 24.7C48.838 25.052 48.7474 25.4573 48.7474 25.916C48.7474 26.4067 48.8487 26.8333 49.0514 27.196C49.2647 27.5587 49.5367 27.8413 49.8674 28.044C50.2087 28.236 50.5714 28.332 50.9554 28.332C51.286 28.332 51.59 28.2947 51.8674 28.22C52.1554 28.1347 52.4114 28.0227 52.6354 27.884C52.87 27.7453 53.0674 27.5747 53.2274 27.372L54.2514 28.236C54.0274 28.5133 53.7447 28.7587 53.4034 28.972C53.062 29.1747 52.694 29.3347 52.2994 29.452C51.9047 29.5693 51.5047 29.628 51.0994 29.628ZM56.7376 29.5V23.772H55.0256V22.46H56.7376V19.74H58.2736V22.46H59.9696V23.772H58.2736V29.5H56.7376ZM61.0476 22.444L60.5836 21.676C60.6796 21.5907 60.8023 21.468 60.9516 21.308C61.101 21.148 61.2343 20.9773 61.3516 20.796C61.4796 20.6147 61.5543 20.4547 61.5756 20.316H61.4956C61.3036 20.316 61.1276 20.2253 60.9676 20.044C60.8183 19.852 60.7436 19.6387 60.7436 19.404C60.7436 19.212 60.7916 19.0467 60.8876 18.908C60.9943 18.7693 61.1223 18.6627 61.2716 18.588C61.4316 18.5027 61.581 18.46 61.7196 18.46C62.0716 18.46 62.333 18.588 62.5036 18.844C62.6743 19.0893 62.7596 19.3987 62.7596 19.772C62.7596 20.1027 62.6796 20.444 62.5196 20.796C62.3596 21.1373 62.1463 21.452 61.8796 21.74C61.6236 22.028 61.3463 22.2627 61.0476 22.444ZM66.5841 29.692C65.9975 29.692 65.4801 29.6067 65.0321 29.436C64.5841 29.2653 64.2215 29.004 63.9441 28.652C63.6775 28.3 63.5121 27.852 63.4481 27.308H65.0321C65.0855 27.6387 65.1921 27.8947 65.3521 28.076C65.5228 28.2467 65.7201 28.364 65.9441 28.428C66.1681 28.492 66.4028 28.524 66.6481 28.524C67.0855 28.524 67.4215 28.444 67.6561 28.284C67.8908 28.1133 68.0081 27.868 68.0081 27.548C68.0081 27.324 67.9121 27.1373 67.7201 26.988C67.5388 26.828 67.2721 26.7 66.9201 26.604C66.7175 26.54 66.4775 26.4813 66.2001 26.428C65.9228 26.364 65.6455 26.2947 65.3681 26.22C65.1015 26.1347 64.8615 26.0387 64.6481 25.932C64.3601 25.772 64.1255 25.5747 63.9441 25.34C63.7735 25.0947 63.6881 24.8013 63.6881 24.46C63.6881 23.98 63.8055 23.58 64.0401 23.26C64.2855 22.94 64.6161 22.7 65.0321 22.54C65.4588 22.38 65.9495 22.3 66.5041 22.3C67.2508 22.3 67.8801 22.4493 68.3921 22.748C68.9148 23.0467 69.2455 23.5747 69.3841 24.332H67.8001C67.7468 24.108 67.6561 23.932 67.5281 23.804C67.4001 23.6653 67.2455 23.5747 67.0641 23.532C66.8828 23.4787 66.6801 23.452 66.4561 23.452C66.1681 23.452 65.9015 23.516 65.6561 23.644C65.4108 23.772 65.2881 23.9747 65.2881 24.252C65.2881 24.5293 65.4055 24.732 65.6401 24.86C65.8748 24.9773 66.1308 25.0733 66.4081 25.148C66.5681 25.18 66.7655 25.2227 67.0001 25.276C67.2455 25.3293 67.4961 25.3933 67.7521 25.468C68.0188 25.532 68.2535 25.6173 68.4561 25.724C68.8188 25.884 69.1015 26.108 69.3041 26.396C69.5068 26.684 69.6081 27.036 69.6081 27.452C69.6081 27.9853 69.4748 28.4173 69.2081 28.748C68.9415 29.068 68.5788 29.308 68.1201 29.468C67.6721 29.6173 67.1601 29.692 66.5841 29.692ZM79.8334 29.66C79.076 29.66 78.3667 29.516 77.7054 29.228C77.044 28.9293 76.4574 28.524 75.9454 28.012C75.444 27.4893 75.0547 26.892 74.7774 26.22C74.5 25.548 74.3614 24.8333 74.3614 24.076C74.3614 23.3187 74.4947 22.604 74.7614 21.932C75.0387 21.26 75.428 20.6627 75.9294 20.14C76.4307 19.6173 77.012 19.212 77.6734 18.924C78.3454 18.6253 79.0654 18.476 79.8334 18.476C80.6227 18.476 81.3534 18.6253 82.0254 18.924C82.708 19.2227 83.3 19.644 83.8014 20.188C84.3134 20.7213 84.6974 21.34 84.9534 22.044H83.2414C82.8894 21.3613 82.3987 20.8493 81.7694 20.508C81.14 20.156 80.4627 19.98 79.7374 19.98C79.2894 19.98 78.8414 20.076 78.3934 20.268C77.9454 20.46 77.5294 20.7373 77.1454 21.1C76.772 21.452 76.4734 21.8787 76.2494 22.38C76.0254 22.8813 75.9134 23.4467 75.9134 24.076C75.9134 24.6307 76.0147 25.1587 76.2174 25.66C76.42 26.1507 76.7027 26.5827 77.0654 26.956C77.428 27.3293 77.844 27.6227 78.3134 27.836C78.7827 28.0387 79.2894 28.14 79.8334 28.14C80.58 28.14 81.2574 27.948 81.8654 27.564C82.484 27.1693 82.948 26.6627 83.2574 26.044H84.9694C84.7134 26.7587 84.3294 27.388 83.8174 27.932C83.3054 28.476 82.708 28.9027 82.0254 29.212C81.3427 29.5107 80.612 29.66 79.8334 29.66ZM86.3476 29.5V17.5H87.8836V23.548C88.1183 23.196 88.417 22.9027 88.7796 22.668C89.153 22.4227 89.5903 22.3 90.0916 22.3C90.689 22.3 91.1796 22.4227 91.5636 22.668C91.9583 22.9133 92.2516 23.2547 92.4436 23.692C92.6356 24.1293 92.7316 24.6413 92.7316 25.228V29.5H91.1956V25.228C91.1956 24.9507 91.153 24.6947 91.0676 24.46C90.993 24.2253 90.865 24.0387 90.6836 23.9C90.5023 23.7613 90.2516 23.692 89.9316 23.692C89.473 23.692 89.089 23.804 88.7796 24.028C88.481 24.2413 88.257 24.5507 88.1076 24.956C87.9583 25.3507 87.8836 25.82 87.8836 26.364V29.5H86.3476ZM97.3957 29.66C96.7344 29.66 96.1424 29.4893 95.6197 29.148C95.0971 28.796 94.6864 28.3427 94.3877 27.788C94.0997 27.2227 93.9557 26.62 93.9557 25.98C93.9557 25.3293 94.0997 24.7267 94.3877 24.172C94.6864 23.6173 95.0971 23.1693 95.6197 22.828C96.1424 22.476 96.7344 22.3 97.3957 22.3C97.9291 22.3 98.4144 22.4067 98.8517 22.62C99.2891 22.8333 99.6624 23.1427 99.9717 23.548V22.46H101.524V29.5H99.9717V28.412C99.7904 28.668 99.5664 28.892 99.2997 29.084C99.0331 29.276 98.7397 29.42 98.4197 29.516C98.0997 29.612 97.7584 29.66 97.3957 29.66ZM97.7637 28.268C98.1904 28.268 98.5691 28.1613 98.8997 27.948C99.2304 27.7347 99.4917 27.4573 99.6837 27.116C99.8757 26.764 99.9717 26.3853 99.9717 25.98C99.9717 25.5747 99.8757 25.2013 99.6837 24.86C99.4917 24.508 99.2304 24.2253 98.8997 24.012C98.5691 23.7987 98.1904 23.692 97.7637 23.692C97.3371 23.692 96.9584 23.7987 96.6277 24.012C96.2971 24.2253 96.0357 24.508 95.8437 24.86C95.6517 25.2013 95.5557 25.5747 95.5557 25.98C95.5557 26.3853 95.6517 26.764 95.8437 27.116C96.0357 27.4573 96.2971 27.7347 96.6277 27.948C96.9584 28.1613 97.3371 28.268 97.7637 28.268ZM104.388 29.5V23.772H102.676V22.46H104.388V19.74H105.924V22.46H107.62V23.772H105.924V29.5H104.388Z" fill="white" style="mix-blend-mode:overlay" shape-rendering="crispEdges"/>
<path d="M40.62 29.5V18.62H42.172V28.028H46.748V29.5H40.62ZM51.0994 29.628C50.3527 29.628 49.6807 29.4787 49.0834 29.18C48.4967 28.8707 48.0274 28.444 47.6754 27.9C47.3234 27.3453 47.1474 26.7 47.1474 25.964C47.1474 25.26 47.318 24.6307 47.6594 24.076C48.0007 23.5213 48.4594 23.084 49.0354 22.764C49.6114 22.4333 50.2567 22.268 50.9714 22.268C51.654 22.268 52.278 22.4333 52.8434 22.764C53.4087 23.084 53.862 23.516 54.2034 24.06C54.5554 24.604 54.7314 25.2227 54.7314 25.916V26.364H48.3154V25.212H53.1794C53.094 24.7427 52.8487 24.348 52.4434 24.028C52.038 23.6973 51.5527 23.532 50.9874 23.532C50.5287 23.532 50.1287 23.6387 49.7874 23.852C49.4567 24.0547 49.2007 24.3373 49.0194 24.7C48.838 25.052 48.7474 25.4573 48.7474 25.916C48.7474 26.4067 48.8487 26.8333 49.0514 27.196C49.2647 27.5587 49.5367 27.8413 49.8674 28.044C50.2087 28.236 50.5714 28.332 50.9554 28.332C51.286 28.332 51.59 28.2947 51.8674 28.22C52.1554 28.1347 52.4114 28.0227 52.6354 27.884C52.87 27.7453 53.0674 27.5747 53.2274 27.372L54.2514 28.236C54.0274 28.5133 53.7447 28.7587 53.4034 28.972C53.062 29.1747 52.694 29.3347 52.2994 29.452C51.9047 29.5693 51.5047 29.628 51.0994 29.628ZM56.7376 29.5V23.772H55.0256V22.46H56.7376V19.74H58.2736V22.46H59.9696V23.772H58.2736V29.5H56.7376ZM61.0476 22.444L60.5836 21.676C60.6796 21.5907 60.8023 21.468 60.9516 21.308C61.101 21.148 61.2343 20.9773 61.3516 20.796C61.4796 20.6147 61.5543 20.4547 61.5756 20.316H61.4956C61.3036 20.316 61.1276 20.2253 60.9676 20.044C60.8183 19.852 60.7436 19.6387 60.7436 19.404C60.7436 19.212 60.7916 19.0467 60.8876 18.908C60.9943 18.7693 61.1223 18.6627 61.2716 18.588C61.4316 18.5027 61.581 18.46 61.7196 18.46C62.0716 18.46 62.333 18.588 62.5036 18.844C62.6743 19.0893 62.7596 19.3987 62.7596 19.772C62.7596 20.1027 62.6796 20.444 62.5196 20.796C62.3596 21.1373 62.1463 21.452 61.8796 21.74C61.6236 22.028 61.3463 22.2627 61.0476 22.444ZM66.5841 29.692C65.9975 29.692 65.4801 29.6067 65.0321 29.436C64.5841 29.2653 64.2215 29.004 63.9441 28.652C63.6775 28.3 63.5121 27.852 63.4481 27.308H65.0321C65.0855 27.6387 65.1921 27.8947 65.3521 28.076C65.5228 28.2467 65.7201 28.364 65.9441 28.428C66.1681 28.492 66.4028 28.524 66.6481 28.524C67.0855 28.524 67.4215 28.444 67.6561 28.284C67.8908 28.1133 68.0081 27.868 68.0081 27.548C68.0081 27.324 67.9121 27.1373 67.7201 26.988C67.5388 26.828 67.2721 26.7 66.9201 26.604C66.7175 26.54 66.4775 26.4813 66.2001 26.428C65.9228 26.364 65.6455 26.2947 65.3681 26.22C65.1015 26.1347 64.8615 26.0387 64.6481 25.932C64.3601 25.772 64.1255 25.5747 63.9441 25.34C63.7735 25.0947 63.6881 24.8013 63.6881 24.46C63.6881 23.98 63.8055 23.58 64.0401 23.26C64.2855 22.94 64.6161 22.7 65.0321 22.54C65.4588 22.38 65.9495 22.3 66.5041 22.3C67.2508 22.3 67.8801 22.4493 68.3921 22.748C68.9148 23.0467 69.2455 23.5747 69.3841 24.332H67.8001C67.7468 24.108 67.6561 23.932 67.5281 23.804C67.4001 23.6653 67.2455 23.5747 67.0641 23.532C66.8828 23.4787 66.6801 23.452 66.4561 23.452C66.1681 23.452 65.9015 23.516 65.6561 23.644C65.4108 23.772 65.2881 23.9747 65.2881 24.252C65.2881 24.5293 65.4055 24.732 65.6401 24.86C65.8748 24.9773 66.1308 25.0733 66.4081 25.148C66.5681 25.18 66.7655 25.2227 67.0001 25.276C67.2455 25.3293 67.4961 25.3933 67.7521 25.468C68.0188 25.532 68.2535 25.6173 68.4561 25.724C68.8188 25.884 69.1015 26.108 69.3041 26.396C69.5068 26.684 69.6081 27.036 69.6081 27.452C69.6081 27.9853 69.4748 28.4173 69.2081 28.748C68.9415 29.068 68.5788 29.308 68.1201 29.468C67.6721 29.6173 67.1601 29.692 66.5841 29.692ZM79.8334 29.66C79.076 29.66 78.3667 29.516 77.7054 29.228C77.044 28.9293 76.4574 28.524 75.9454 28.012C75.444 27.4893 75.0547 26.892 74.7774 26.22C74.5 25.548 74.3614 24.8333 74.3614 24.076C74.3614 23.3187 74.4947 22.604 74.7614 21.932C75.0387 21.26 75.428 20.6627 75.9294 20.14C76.4307 19.6173 77.012 19.212 77.6734 18.924C78.3454 18.6253 79.0654 18.476 79.8334 18.476C80.6227 18.476 81.3534 18.6253 82.0254 18.924C82.708 19.2227 83.3 19.644 83.8014 20.188C84.3134 20.7213 84.6974 21.34 84.9534 22.044H83.2414C82.8894 21.3613 82.3987 20.8493 81.7694 20.508C81.14 20.156 80.4627 19.98 79.7374 19.98C79.2894 19.98 78.8414 20.076 78.3934 20.268C77.9454 20.46 77.5294 20.7373 77.1454 21.1C76.772 21.452 76.4734 21.8787 76.2494 22.38C76.0254 22.8813 75.9134 23.4467 75.9134 24.076C75.9134 24.6307 76.0147 25.1587 76.2174 25.66C76.42 26.1507 76.7027 26.5827 77.0654 26.956C77.428 27.3293 77.844 27.6227 78.3134 27.836C78.7827 28.0387 79.2894 28.14 79.8334 28.14C80.58 28.14 81.2574 27.948 81.8654 27.564C82.484 27.1693 82.948 26.6627 83.2574 26.044H84.9694C84.7134 26.7587 84.3294 27.388 83.8174 27.932C83.3054 28.476 82.708 28.9027 82.0254 29.212C81.3427 29.5107 80.612 29.66 79.8334 29.66ZM86.3476 29.5V17.5H87.8836V23.548C88.1183 23.196 88.417 22.9027 88.7796 22.668C89.153 22.4227 89.5903 22.3 90.0916 22.3C90.689 22.3 91.1796 22.4227 91.5636 22.668C91.9583 22.9133 92.2516 23.2547 92.4436 23.692C92.6356 24.1293 92.7316 24.6413 92.7316 25.228V29.5H91.1956V25.228C91.1956 24.9507 91.153 24.6947 91.0676 24.46C90.993 24.2253 90.865 24.0387 90.6836 23.9C90.5023 23.7613 90.2516 23.692 89.9316 23.692C89.473 23.692 89.089 23.804 88.7796 24.028C88.481 24.2413 88.257 24.5507 88.1076 24.956C87.9583 25.3507 87.8836 25.82 87.8836 26.364V29.5H86.3476ZM97.3957 29.66C96.7344 29.66 96.1424 29.4893 95.6197 29.148C95.0971 28.796 94.6864 28.3427 94.3877 27.788C94.0997 27.2227 93.9557 26.62 93.9557 25.98C93.9557 25.3293 94.0997 24.7267 94.3877 24.172C94.6864 23.6173 95.0971 23.1693 95.6197 22.828C96.1424 22.476 96.7344 22.3 97.3957 22.3C97.9291 22.3 98.4144 22.4067 98.8517 22.62C99.2891 22.8333 99.6624 23.1427 99.9717 23.548V22.46H101.524V29.5H99.9717V28.412C99.7904 28.668 99.5664 28.892 99.2997 29.084C99.0331 29.276 98.7397 29.42 98.4197 29.516C98.0997 29.612 97.7584 29.66 97.3957 29.66ZM97.7637 28.268C98.1904 28.268 98.5691 28.1613 98.8997 27.948C99.2304 27.7347 99.4917 27.4573 99.6837 27.116C99.8757 26.764 99.9717 26.3853 99.9717 25.98C99.9717 25.5747 99.8757 25.2013 99.6837 24.86C99.4917 24.508 99.2304 24.2253 98.8997 24.012C98.5691 23.7987 98.1904 23.692 97.7637 23.692C97.3371 23.692 96.9584 23.7987 96.6277 24.012C96.2971 24.2253 96.0357 24.508 95.8437 24.86C95.6517 25.2013 95.5557 25.5747 95.5557 25.98C95.5557 26.3853 95.6517 26.764 95.8437 27.116C96.0357 27.4573 96.2971 27.7347 96.6277 27.948C96.9584 28.1613 97.3371 28.268 97.7637 28.268ZM104.388 29.5V23.772H102.676V22.46H104.388V19.74H105.924V22.46H107.62V23.772H105.924V29.5H104.388Z" fill="white" fill-opacity="0.5" shape-rendering="crispEdges"/>
<path d="M40.62 29.5V18.62H42.172V28.028H46.748V29.5H40.62ZM51.0994 29.628C50.3527 29.628 49.6807 29.4787 49.0834 29.18C48.4967 28.8707 48.0274 28.444 47.6754 27.9C47.3234 27.3453 47.1474 26.7 47.1474 25.964C47.1474 25.26 47.318 24.6307 47.6594 24.076C48.0007 23.5213 48.4594 23.084 49.0354 22.764C49.6114 22.4333 50.2567 22.268 50.9714 22.268C51.654 22.268 52.278 22.4333 52.8434 22.764C53.4087 23.084 53.862 23.516 54.2034 24.06C54.5554 24.604 54.7314 25.2227 54.7314 25.916V26.364H48.3154V25.212H53.1794C53.094 24.7427 52.8487 24.348 52.4434 24.028C52.038 23.6973 51.5527 23.532 50.9874 23.532C50.5287 23.532 50.1287 23.6387 49.7874 23.852C49.4567 24.0547 49.2007 24.3373 49.0194 24.7C48.838 25.052 48.7474 25.4573 48.7474 25.916C48.7474 26.4067 48.8487 26.8333 49.0514 27.196C49.2647 27.5587 49.5367 27.8413 49.8674 28.044C50.2087 28.236 50.5714 28.332 50.9554 28.332C51.286 28.332 51.59 28.2947 51.8674 28.22C52.1554 28.1347 52.4114 28.0227 52.6354 27.884C52.87 27.7453 53.0674 27.5747 53.2274 27.372L54.2514 28.236C54.0274 28.5133 53.7447 28.7587 53.4034 28.972C53.062 29.1747 52.694 29.3347 52.2994 29.452C51.9047 29.5693 51.5047 29.628 51.0994 29.628ZM56.7376 29.5V23.772H55.0256V22.46H56.7376V19.74H58.2736V22.46H59.9696V23.772H58.2736V29.5H56.7376ZM61.0476 22.444L60.5836 21.676C60.6796 21.5907 60.8023 21.468 60.9516 21.308C61.101 21.148 61.2343 20.9773 61.3516 20.796C61.4796 20.6147 61.5543 20.4547 61.5756 20.316H61.4956C61.3036 20.316 61.1276 20.2253 60.9676 20.044C60.8183 19.852 60.7436 19.6387 60.7436 19.404C60.7436 19.212 60.7916 19.0467 60.8876 18.908C60.9943 18.7693 61.1223 18.6627 61.2716 18.588C61.4316 18.5027 61.581 18.46 61.7196 18.46C62.0716 18.46 62.333 18.588 62.5036 18.844C62.6743 19.0893 62.7596 19.3987 62.7596 19.772C62.7596 20.1027 62.6796 20.444 62.5196 20.796C62.3596 21.1373 62.1463 21.452 61.8796 21.74C61.6236 22.028 61.3463 22.2627 61.0476 22.444ZM66.5841 29.692C65.9975 29.692 65.4801 29.6067 65.0321 29.436C64.5841 29.2653 64.2215 29.004 63.9441 28.652C63.6775 28.3 63.5121 27.852 63.4481 27.308H65.0321C65.0855 27.6387 65.1921 27.8947 65.3521 28.076C65.5228 28.2467 65.7201 28.364 65.9441 28.428C66.1681 28.492 66.4028 28.524 66.6481 28.524C67.0855 28.524 67.4215 28.444 67.6561 28.284C67.8908 28.1133 68.0081 27.868 68.0081 27.548C68.0081 27.324 67.9121 27.1373 67.7201 26.988C67.5388 26.828 67.2721 26.7 66.9201 26.604C66.7175 26.54 66.4775 26.4813 66.2001 26.428C65.9228 26.364 65.6455 26.2947 65.3681 26.22C65.1015 26.1347 64.8615 26.0387 64.6481 25.932C64.3601 25.772 64.1255 25.5747 63.9441 25.34C63.7735 25.0947 63.6881 24.8013 63.6881 24.46C63.6881 23.98 63.8055 23.58 64.0401 23.26C64.2855 22.94 64.6161 22.7 65.0321 22.54C65.4588 22.38 65.9495 22.3 66.5041 22.3C67.2508 22.3 67.8801 22.4493 68.3921 22.748C68.9148 23.0467 69.2455 23.5747 69.3841 24.332H67.8001C67.7468 24.108 67.6561 23.932 67.5281 23.804C67.4001 23.6653 67.2455 23.5747 67.0641 23.532C66.8828 23.4787 66.6801 23.452 66.4561 23.452C66.1681 23.452 65.9015 23.516 65.6561 23.644C65.4108 23.772 65.2881 23.9747 65.2881 24.252C65.2881 24.5293 65.4055 24.732 65.6401 24.86C65.8748 24.9773 66.1308 25.0733 66.4081 25.148C66.5681 25.18 66.7655 25.2227 67.0001 25.276C67.2455 25.3293 67.4961 25.3933 67.7521 25.468C68.0188 25.532 68.2535 25.6173 68.4561 25.724C68.8188 25.884 69.1015 26.108 69.3041 26.396C69.5068 26.684 69.6081 27.036 69.6081 27.452C69.6081 27.9853 69.4748 28.4173 69.2081 28.748C68.9415 29.068 68.5788 29.308 68.1201 29.468C67.6721 29.6173 67.1601 29.692 66.5841 29.692ZM79.8334 29.66C79.076 29.66 78.3667 29.516 77.7054 29.228C77.044 28.9293 76.4574 28.524 75.9454 28.012C75.444 27.4893 75.0547 26.892 74.7774 26.22C74.5 25.548 74.3614 24.8333 74.3614 24.076C74.3614 23.3187 74.4947 22.604 74.7614 21.932C75.0387 21.26 75.428 20.6627 75.9294 20.14C76.4307 19.6173 77.012 19.212 77.6734 18.924C78.3454 18.6253 79.0654 18.476 79.8334 18.476C80.6227 18.476 81.3534 18.6253 82.0254 18.924C82.708 19.2227 83.3 19.644 83.8014 20.188C84.3134 20.7213 84.6974 21.34 84.9534 22.044H83.2414C82.8894 21.3613 82.3987 20.8493 81.7694 20.508C81.14 20.156 80.4627 19.98 79.7374 19.98C79.2894 19.98 78.8414 20.076 78.3934 20.268C77.9454 20.46 77.5294 20.7373 77.1454 21.1C76.772 21.452 76.4734 21.8787 76.2494 22.38C76.0254 22.8813 75.9134 23.4467 75.9134 24.076C75.9134 24.6307 76.0147 25.1587 76.2174 25.66C76.42 26.1507 76.7027 26.5827 77.0654 26.956C77.428 27.3293 77.844 27.6227 78.3134 27.836C78.7827 28.0387 79.2894 28.14 79.8334 28.14C80.58 28.14 81.2574 27.948 81.8654 27.564C82.484 27.1693 82.948 26.6627 83.2574 26.044H84.9694C84.7134 26.7587 84.3294 27.388 83.8174 27.932C83.3054 28.476 82.708 28.9027 82.0254 29.212C81.3427 29.5107 80.612 29.66 79.8334 29.66ZM86.3476 29.5V17.5H87.8836V23.548C88.1183 23.196 88.417 22.9027 88.7796 22.668C89.153 22.4227 89.5903 22.3 90.0916 22.3C90.689 22.3 91.1796 22.4227 91.5636 22.668C91.9583 22.9133 92.2516 23.2547 92.4436 23.692C92.6356 24.1293 92.7316 24.6413 92.7316 25.228V29.5H91.1956V25.228C91.1956 24.9507 91.153 24.6947 91.0676 24.46C90.993 24.2253 90.865 24.0387 90.6836 23.9C90.5023 23.7613 90.2516 23.692 89.9316 23.692C89.473 23.692 89.089 23.804 88.7796 24.028C88.481 24.2413 88.257 24.5507 88.1076 24.956C87.9583 25.3507 87.8836 25.82 87.8836 26.364V29.5H86.3476ZM97.3957 29.66C96.7344 29.66 96.1424 29.4893 95.6197 29.148C95.0971 28.796 94.6864 28.3427 94.3877 27.788C94.0997 27.2227 93.9557 26.62 93.9557 25.98C93.9557 25.3293 94.0997 24.7267 94.3877 24.172C94.6864 23.6173 95.0971 23.1693 95.6197 22.828C96.1424 22.476 96.7344 22.3 97.3957 22.3C97.9291 22.3 98.4144 22.4067 98.8517 22.62C99.2891 22.8333 99.6624 23.1427 99.9717 23.548V22.46H101.524V29.5H99.9717V28.412C99.7904 28.668 99.5664 28.892 99.2997 29.084C99.0331 29.276 98.7397 29.42 98.4197 29.516C98.0997 29.612 97.7584 29.66 97.3957 29.66ZM97.7637 28.268C98.1904 28.268 98.5691 28.1613 98.8997 27.948C99.2304 27.7347 99.4917 27.4573 99.6837 27.116C99.8757 26.764 99.9717 26.3853 99.9717 25.98C99.9717 25.5747 99.8757 25.2013 99.6837 24.86C99.4917 24.508 99.2304 24.2253 98.8997 24.012C98.5691 23.7987 98.1904 23.692 97.7637 23.692C97.3371 23.692 96.9584 23.7987 96.6277 24.012C96.2971 24.2253 96.0357 24.508 95.8437 24.86C95.6517 25.2013 95.5557 25.5747 95.5557 25.98C95.5557 26.3853 95.6517 26.764 95.8437 27.116C96.0357 27.4573 96.2971 27.7347 96.6277 27.948C96.9584 28.1613 97.3371 28.268 97.7637 28.268ZM104.388 29.5V23.772H102.676V22.46H104.388V19.74H105.924V22.46H107.62V23.772H105.924V29.5H104.388Z" fill="url(#paint6_linear_2043_534)" fill-opacity="0.7" shape-rendering="crispEdges"/>
</g>
</g>
<rect x="1.75" y="1.75" width="144.5" height="44.5" rx="22.25" stroke="url(#paint7_linear_2043_534)" stroke-width="3.5" style="mix-blend-mode:soft-light"/>
<rect x="1.75" y="1.75" width="144.5" height="44.5" rx="22.25" stroke="url(#paint8_linear_2043_534)" stroke-opacity="0.72" stroke-width="3.5"/>
<defs>
<filter id="filter0_f_2043_534" x="-25" y="-30" width="198" height="41" filterUnits="userSpaceOnUse" color-interpolation-filters="sRGB">
<feFlood flood-opacity="0" result="BackgroundImageFix"/>
<feBlend mode="normal" in="SourceGraphic" in2="BackgroundImageFix" result="shape"/>
<feGaussianBlur stdDeviation="0.5" result="effect1_foregroundBlur_2043_534"/>
</filter>
<filter id="filter1_d_2043_534" x="37.62" y="16.5" width="73.0002" height="18.1919" filterUnits="userSpaceOnUse" color-interpolation-filters="sRGB">
<feFlood flood-opacity="0" result="BackgroundImageFix"/>
<feColorMatrix in="SourceAlpha" type="matrix" values="0 0 0 0 0 0 0 0 0 0 0 0 0 0 0 0 0 0 127 0" result="hardAlpha"/>
<feOffset dy="2"/>
<feGaussianBlur stdDeviation="1.5"/>
<feComposite in2="hardAlpha" operator="out"/>
<feColorMatrix type="matrix" values="0 0 0 0 0 0 0 0 0 0 0 0 0 0 0 0 0 0 0.12 0"/>
<feBlend mode="normal" in2="BackgroundImageFix" result="effect1_dropShadow_2043_534"/>
<feBlend mode="normal" in="SourceGraphic" in2="effect1_dropShadow_2043_534" result="shape"/>
</filter>
<linearGradient id="paint0_linear_2043_534" x1="-64.7897" y1="19.691" x2="131.167" y2="69.8712" gradientUnits="userSpaceOnUse">
<stop stop-color="#01B3FD"/>
<stop offset="0.485477" stop-color="#0171E4"/>
<stop offset="1" stop-color="#D105F7"/>
</linearGradient>
<linearGradient id="paint1_linear_2043_534" x1="148" y1="24" x2="0" y2="24" gradientUnits="userSpaceOnUse">
<stop/>
<stop offset="0.5" stop-opacity="0"/>
<stop offset="1"/>
</linearGradient>
<radialGradient id="paint2_radial_2043_534" cx="0" cy="0" r="1" gradientUnits="userSpaceOnUse" gradientTransform="translate(74 10.5) rotate(-90) scale(15.5 47.7917)">
<stop stop-color="white"/>
<stop offset="1" stop-color="white" stop-opacity="0"/>
</radialGradient>
<radialGradient id="paint3_radial_2043_534" cx="0" cy="0" r="1" gradientUnits="userSpaceOnUse" gradientTransform="translate(73.408 48) rotate(-90) scale(11 78.736)">
<stop stop-color="white"/>
<stop offset="1" stop-color="white" stop-opacity="0"/>
</radialGradient>
<linearGradient id="paint4_linear_2043_534" x1="-47" y1="-65" x2="134" y2="64.5" gradientUnits="userSpaceOnUse">
<stop offset="0.296117" stop-color="white" stop-opacity="0"/>
<stop offset="0.762136" stop-color="white"/>
<stop offset="0.76699" stop-color="white" stop-opacity="0.6"/>
<stop offset="1" stop-color="white" stop-opacity="0"/>
</linearGradient>
<radialGradient id="paint5_radial_2043_534" cx="0" cy="0" r="1" gradientUnits="userSpaceOnUse" gradientTransform="translate(74 -9.50001) scale(98 19.5)">
<stop stop-color="white" stop-opacity="0.4"/>
<stop offset="0.5" stop-color="white"/>
<stop offset="1" stop-color="white" stop-opacity="0.4"/>
</radialGradient>
<linearGradient id="paint6_linear_2043_534" x1="74" y1="14.5" x2="74" y2="33.5" gradientUnits="userSpaceOnUse">
<stop stop-color="white" stop-opacity="0"/>
<stop offset="1" stop-color="white"/>
</linearGradient>
<linearGradient id="paint7_linear_2043_534" x1="74" y1="0" x2="74" y2="48" gradientUnits="userSpaceOnUse">
<stop stop-color="white"/>
<stop offset="1" stop-color="white" stop-opacity="0.6"/>
</linearGradient>
<linearGradient id="paint8_linear_2043_534" x1="148" y1="24" x2="0" y2="24" gradientUnits="userSpaceOnUse">
<stop stop-color="white" stop-opacity="0"/>
<stop offset="0.25" stop-color="white" stop-opacity="0"/>
<stop offset="0.5" stop-color="white"/>
<stop offset="0.75" stop-color="white" stop-opacity="0"/>
<stop offset="1" stop-color="white" stop-opacity="0"/>
</linearGradient>
<clipPath id="clip0_2043_534">
<rect width="148" height="48" rx="24" fill="white"/>
</clipPath>
</defs>
</svg>
