<svg width="57" height="232" viewBox="0 0 57 232" fill="none" xmlns="http://www.w3.org/2000/svg">
<rect x="0.2" y="231.8" width="231.6" height="56.6" rx="12.9163" transform="rotate(-90 0.2 231.8)" stroke="white" stroke-width="0.4"/>
<path d="M29.3815 151.767C29.3815 151.837 29.346 151.873 29.2752 151.873C29.2043 151.873 29.1688 151.837 29.1688 151.767C29.1688 151.696 29.2043 151.66 29.2752 151.66C29.346 151.66 29.3815 151.696 29.3815 151.767ZM29.8174 151.767C29.8174 151.837 29.782 151.873 29.7111 151.873C29.6402 151.873 29.6048 151.837 29.6048 151.767C29.6048 151.696 29.6402 151.66 29.7111 151.66C29.782 151.66 29.8174 151.696 29.8174 151.767ZM30.2534 151.767C30.2534 151.837 30.2179 151.873 30.147 151.873C30.0762 151.873 30.0407 151.837 30.0407 151.767C30.0407 151.696 30.0762 151.66 30.147 151.66C30.2179 151.66 30.2534 151.696 30.2534 151.767ZM30.6893 151.767C30.6893 151.837 30.6539 151.873 30.583 151.873C30.5121 151.873 30.4767 151.837 30.4767 151.767C30.4767 151.696 30.5121 151.66 30.583 151.66C30.6539 151.66 30.6893 151.696 30.6893 151.767ZM26.0003 151.767C26.0003 151.837 25.9648 151.873 25.8939 151.873C25.823 151.873 25.7876 151.837 25.7876 151.767C25.7876 151.696 25.823 151.66 25.8939 151.66C25.9648 151.66 26.0003 151.696 26.0003 151.767ZM26.4149 151.767C26.4149 151.837 26.3795 151.873 26.3086 151.873C26.2377 151.873 26.2023 151.837 26.2023 151.767C26.2023 151.696 26.2377 151.66 26.3086 151.66C26.3795 151.66 26.4149 151.696 26.4149 151.767ZM26.8721 151.767C26.8721 151.837 26.8367 151.873 26.7658 151.873C26.6949 151.873 26.6595 151.837 26.6595 151.767C26.6595 151.696 26.6949 151.66 26.7658 151.66C26.8367 151.66 26.8721 151.696 26.8721 151.767ZM27.7228 151.767C27.7228 151.837 27.6873 151.873 27.6164 151.873C27.5456 151.873 27.5101 151.837 27.5101 151.767C27.5101 151.696 27.5456 151.66 27.6164 151.66C27.6873 151.66 27.7228 151.696 27.7228 151.767ZM28.1162 151.767C28.1162 151.837 28.0807 151.873 28.0099 151.873C27.939 151.873 27.9035 151.837 27.9035 151.767C27.9035 151.696 27.939 151.66 28.0099 151.66C28.0807 151.66 28.1162 151.696 28.1162 151.767ZM28.5415 151.767C28.5415 151.837 28.506 151.873 28.4352 151.873C28.3643 151.873 28.3288 151.837 28.3288 151.767C28.3288 151.696 28.3643 151.66 28.4352 151.66C28.506 151.66 28.5415 151.696 28.5415 151.767ZM28.9668 151.767C28.9668 151.837 28.9314 151.873 28.8605 151.873C28.7896 151.873 28.7541 151.837 28.7541 151.767C28.7541 151.696 28.7896 151.66 28.8605 151.66C28.9314 151.66 28.9668 151.696 28.9668 151.767ZM24.3947 151.767C24.3947 151.837 24.3593 151.873 24.2884 151.873C24.2175 151.873 24.182 151.837 24.182 151.767C24.182 151.696 24.2175 151.66 24.2884 151.66C24.3593 151.66 24.3947 151.696 24.3947 151.767ZM24.7881 151.767C24.7881 151.837 24.7527 151.873 24.6818 151.873C24.6109 151.873 24.5755 151.837 24.5755 151.767C24.5755 151.696 24.6109 151.66 24.6818 151.66C24.7527 151.66 24.7881 151.696 24.7881 151.767ZM25.1922 151.767C25.1922 151.837 25.1567 151.873 25.0858 151.873C25.015 151.873 24.9795 151.837 24.9795 151.767C24.9795 151.696 25.015 151.66 25.0858 151.66C25.1567 151.66 25.1922 151.696 25.1922 151.767ZM25.5749 151.767C25.5749 151.837 25.5395 151.873 25.4686 151.873C25.3977 151.873 25.3623 151.837 25.3623 151.767C25.3623 151.696 25.3977 151.66 25.4686 151.66C25.5395 151.66 25.5749 151.696 25.5749 151.767ZM27.2975 151.767C27.2975 151.837 27.262 151.873 27.1911 151.873C27.1202 151.873 27.0848 151.837 27.0848 151.767C27.0848 151.696 27.1202 151.66 27.1911 151.66C27.262 151.66 27.2975 151.696 27.2975 151.767ZM31.1146 151.767C31.1146 151.837 31.0792 151.873 31.0083 151.873C30.9374 151.873 30.902 151.837 30.902 151.767C30.902 151.696 30.9374 151.66 31.0083 151.66C31.0792 151.66 31.1146 151.696 31.1146 151.767ZM31.5399 151.767C31.5399 151.837 31.5045 151.873 31.4336 151.873C31.3627 151.873 31.3273 151.837 31.3273 151.767C31.3273 151.696 31.3627 151.66 31.4336 151.66C31.5045 151.66 31.5399 151.696 31.5399 151.767ZM24.3628 151.416C24.3628 151.487 24.3274 151.522 24.2565 151.522C24.1856 151.522 24.1502 151.487 24.1502 151.416C24.1502 151.345 24.1856 151.309 24.2565 151.309C24.3274 151.309 24.3628 151.345 24.3628 151.416ZM24.3628 151.044C24.3628 151.114 24.3274 151.15 24.2565 151.15C24.1856 151.15 24.1502 151.114 24.1502 151.044C24.1502 150.973 24.1856 150.937 24.2565 150.937C24.3274 150.937 24.3628 150.973 24.3628 151.044ZM24.3628 150.671C24.3628 150.742 24.3274 150.778 24.2565 150.778C24.1856 150.778 24.1502 150.742 24.1502 150.671C24.1502 150.601 24.1856 150.565 24.2565 150.565C24.3274 150.565 24.3628 150.601 24.3628 150.671ZM24.3628 150.299C24.3628 150.37 24.3274 150.406 24.2565 150.406C24.1856 150.406 24.1502 150.37 24.1502 150.299C24.1502 150.228 24.1856 150.193 24.2565 150.193C24.3274 150.193 24.3628 150.228 24.3628 150.299ZM24.3522 149.927C24.3522 149.998 24.3167 150.033 24.2458 150.033C24.175 150.033 24.1395 149.998 24.1395 149.927C24.1395 149.856 24.175 149.821 24.2458 149.821C24.3167 149.821 24.3522 149.856 24.3522 149.927ZM24.3522 149.555C24.3522 149.626 24.3167 149.661 24.2458 149.661C24.175 149.661 24.1395 149.626 24.1395 149.555C24.1395 149.484 24.175 149.449 24.2458 149.449C24.3167 149.449 24.3522 149.484 24.3522 149.555ZM24.3522 149.183C24.3522 149.254 24.3167 149.289 24.2458 149.289C24.175 149.289 24.1395 149.254 24.1395 149.183C24.1395 149.112 24.175 149.077 24.2458 149.077C24.3167 149.077 24.3522 149.112 24.3522 149.183ZM24.3628 148.811C24.3628 148.882 24.3274 148.917 24.2565 148.917C24.1856 148.917 24.1502 148.882 24.1502 148.811C24.1502 148.74 24.1856 148.704 24.2565 148.704C24.3274 148.704 24.3628 148.74 24.3628 148.811ZM24.4053 148.439C24.4053 148.509 24.3699 148.545 24.299 148.545C24.2281 148.545 24.1927 148.509 24.1927 148.439C24.1927 148.368 24.2281 148.332 24.299 148.332C24.3699 148.332 24.4053 148.368 24.4053 148.439ZM28.6372 151.416C28.6372 151.487 28.6017 151.522 28.5309 151.522C28.46 151.522 28.4245 151.487 28.4245 151.416C28.4245 151.345 28.46 151.309 28.5309 151.309C28.6017 151.309 28.6372 151.345 28.6372 151.416ZM28.6372 151.044C28.6372 151.114 28.6017 151.15 28.5309 151.15C28.46 151.15 28.4245 151.114 28.4245 151.044C28.4245 150.973 28.46 150.937 28.5309 150.937C28.6017 150.937 28.6372 150.973 28.6372 151.044ZM28.6372 150.671C28.6372 150.742 28.6017 150.778 28.5309 150.778C28.46 150.778 28.4245 150.742 28.4245 150.671C28.4245 150.601 28.46 150.565 28.5309 150.565C28.6017 150.565 28.6372 150.601 28.6372 150.671ZM28.6372 150.299C28.6372 150.37 28.6017 150.406 28.5309 150.406C28.46 150.406 28.4245 150.37 28.4245 150.299C28.4245 150.228 28.46 150.193 28.5309 150.193C28.6017 150.193 28.6372 150.228 28.6372 150.299ZM28.6372 149.927C28.6372 149.998 28.6017 150.033 28.5309 150.033C28.46 150.033 28.4245 149.998 28.4245 149.927C28.4245 149.856 28.46 149.821 28.5309 149.821C28.6017 149.821 28.6372 149.856 28.6372 149.927ZM28.6372 149.555C28.6372 149.626 28.6017 149.661 28.5309 149.661C28.46 149.661 28.4245 149.626 28.4245 149.555C28.4245 149.484 28.46 149.449 28.5309 149.449C28.6017 149.449 28.6372 149.484 28.6372 149.555ZM28.6372 149.172C28.6372 149.243 28.6017 149.279 28.5309 149.279C28.46 149.279 28.4245 149.243 28.4245 149.172C28.4245 149.101 28.46 149.066 28.5309 149.066C28.6017 149.066 28.6372 149.101 28.6372 149.172ZM28.6372 148.789C28.6372 148.86 28.6017 148.896 28.5309 148.896C28.46 148.896 28.4245 148.86 28.4245 148.789C28.4245 148.719 28.46 148.683 28.5309 148.683C28.6017 148.683 28.6372 148.719 28.6372 148.789ZM28.6053 148.417C28.6053 148.488 28.5698 148.524 28.499 148.524C28.4281 148.524 28.3926 148.488 28.3926 148.417C28.3926 148.346 28.4281 148.311 28.499 148.311C28.5698 148.311 28.6053 148.346 28.6053 148.417ZM24.5223 148.088C24.5223 148.159 24.4869 148.194 24.416 148.194C24.3451 148.194 24.3096 148.159 24.3096 148.088C24.3096 148.017 24.3451 147.981 24.416 147.981C24.4869 147.981 24.5223 148.017 24.5223 148.088ZM28.2757 148.066C28.2757 147.996 28.3111 147.96 28.382 147.96C28.4529 147.96 28.4883 147.996 28.4883 148.066C28.4883 148.137 28.4529 148.173 28.382 148.173C28.3111 148.173 28.2757 148.137 28.2757 148.066ZM24.501 147.769C24.501 147.698 24.5365 147.662 24.6074 147.662C24.6782 147.662 24.7137 147.698 24.7137 147.769C24.7137 147.84 24.6782 147.875 24.6074 147.875C24.5365 147.875 24.501 147.84 24.501 147.769ZM24.7669 147.471C24.7669 147.4 24.8023 147.365 24.8732 147.365C24.9441 147.365 24.9795 147.4 24.9795 147.471C24.9795 147.542 24.9441 147.577 24.8732 147.577C24.8023 147.577 24.7669 147.542 24.7669 147.471ZM25.0965 147.237C25.0965 147.166 25.1319 147.131 25.2028 147.131C25.2737 147.131 25.3091 147.166 25.3091 147.237C25.3091 147.308 25.2737 147.343 25.2028 147.343C25.1319 147.343 25.0965 147.308 25.0965 147.237ZM25.4686 147.046C25.4686 146.975 25.5041 146.939 25.5749 146.939C25.6458 146.939 25.6813 146.975 25.6813 147.046C25.6813 147.117 25.6458 147.152 25.5749 147.152C25.5041 147.152 25.4686 147.117 25.4686 147.046ZM25.8727 146.939C25.8727 146.868 25.9081 146.833 25.979 146.833C26.0499 146.833 26.0853 146.868 26.0853 146.939C26.0853 147.01 26.0499 147.046 25.979 147.046C25.9081 147.046 25.8727 147.01 25.8727 146.939ZM26.298 146.886C26.298 146.815 26.3334 146.78 26.4043 146.78C26.4752 146.78 26.5106 146.815 26.5106 146.886C26.5106 146.957 26.4752 146.992 26.4043 146.992C26.3334 146.992 26.298 146.957 26.298 146.886ZM26.7233 146.939C26.7233 146.868 26.7587 146.833 26.8296 146.833C26.9005 146.833 26.9359 146.868 26.9359 146.939C26.9359 147.01 26.9005 147.046 26.8296 147.046C26.7587 147.046 26.7233 147.01 26.7233 146.939ZM27.1273 147.046C27.1273 146.975 27.1628 146.939 27.2337 146.939C27.3045 146.939 27.34 146.975 27.34 147.046C27.34 147.117 27.3045 147.152 27.2337 147.152C27.1628 147.152 27.1273 147.117 27.1273 147.046ZM27.4995 147.216C27.4995 147.145 27.5349 147.109 27.6058 147.109C27.6767 147.109 27.7121 147.145 27.7121 147.216C27.7121 147.287 27.6767 147.322 27.6058 147.322C27.5349 147.322 27.4995 147.287 27.4995 147.216ZM27.8185 147.46C27.8185 147.389 27.8539 147.354 27.9248 147.354C27.9957 147.354 28.0311 147.389 28.0311 147.46C28.0311 147.531 27.9957 147.567 27.9248 147.567C27.8539 147.567 27.8185 147.531 27.8185 147.46ZM28.0736 147.737C28.0736 147.666 28.1091 147.63 28.18 147.63C28.2509 147.63 28.2863 147.666 28.2863 147.737C28.2863 147.808 28.2509 147.843 28.18 147.843C28.1091 147.843 28.0736 147.808 28.0736 147.737ZM29.2858 148.439C29.2858 148.509 29.2503 148.545 29.1795 148.545C29.1086 148.545 29.0731 148.509 29.0731 148.439C29.0731 148.368 29.1086 148.332 29.1795 148.332C29.2503 148.332 29.2858 148.368 29.2858 148.439ZM29.626 148.226C29.626 148.297 29.5906 148.332 29.5197 148.332C29.4488 148.332 29.4134 148.297 29.4134 148.226C29.4134 148.155 29.4488 148.12 29.5197 148.12C29.5906 148.12 29.626 148.155 29.626 148.226ZM30.6468 147.556C30.6468 147.627 30.6113 147.662 30.5405 147.662C30.4696 147.662 30.4341 147.627 30.4341 147.556C30.4341 147.485 30.4696 147.45 30.5405 147.45C30.6113 147.45 30.6468 147.485 30.6468 147.556ZM30.987 147.333C30.987 147.404 30.9516 147.439 30.8807 147.439C30.8098 147.439 30.7744 147.404 30.7744 147.333C30.7744 147.262 30.8098 147.226 30.8807 147.226C30.9516 147.226 30.987 147.262 30.987 147.333ZM29.9663 147.992C29.9663 148.063 29.9308 148.098 29.86 148.098C29.7891 148.098 29.7536 148.063 29.7536 147.992C29.7536 147.921 29.7891 147.886 29.86 147.886C29.9308 147.886 29.9663 147.921 29.9663 147.992ZM30.3065 147.779C30.3065 147.85 30.2711 147.886 30.2002 147.886C30.1293 147.886 30.0939 147.85 30.0939 147.779C30.0939 147.708 30.1293 147.673 30.2002 147.673C30.2711 147.673 30.3065 147.708 30.3065 147.779ZM31.3273 147.12C31.3273 147.191 31.2918 147.226 31.221 147.226C31.1501 147.226 31.1146 147.191 31.1146 147.12C31.1146 147.049 31.1501 147.014 31.221 147.014C31.2918 147.014 31.3273 147.049 31.3273 147.12ZM31.6675 146.886C31.6675 146.957 31.6321 146.992 31.5612 146.992C31.4903 146.992 31.4549 146.957 31.4549 146.886C31.4549 146.815 31.4903 146.78 31.5612 146.78C31.6321 146.78 31.6675 146.815 31.6675 146.886ZM28.9668 148.683C28.9668 148.754 28.9314 148.789 28.8605 148.789C28.7896 148.789 28.7541 148.754 28.7541 148.683C28.7541 148.612 28.7896 148.577 28.8605 148.577C28.9314 148.577 28.9668 148.612 28.9668 148.683ZM29.3815 144.83C29.3815 144.901 29.346 144.937 29.2752 144.937C29.2043 144.937 29.1688 144.901 29.1688 144.83C29.1688 144.759 29.2043 144.724 29.2752 144.724C29.346 144.724 29.3815 144.759 29.3815 144.83ZM29.8174 144.83C29.8174 144.901 29.782 144.937 29.7111 144.937C29.6402 144.937 29.6048 144.901 29.6048 144.83C29.6048 144.759 29.6402 144.724 29.7111 144.724C29.782 144.724 29.8174 144.759 29.8174 144.83ZM30.2534 144.83C30.2534 144.901 30.2179 144.937 30.147 144.937C30.0762 144.937 30.0407 144.901 30.0407 144.83C30.0407 144.759 30.0762 144.724 30.147 144.724C30.2179 144.724 30.2534 144.759 30.2534 144.83ZM30.6893 144.83C30.6893 144.901 30.6539 144.937 30.583 144.937C30.5121 144.937 30.4767 144.901 30.4767 144.83C30.4767 144.759 30.5121 144.724 30.583 144.724C30.6539 144.724 30.6893 144.759 30.6893 144.83ZM26.0003 144.83C26.0003 144.901 25.9648 144.937 25.8939 144.937C25.823 144.937 25.7876 144.901 25.7876 144.83C25.7876 144.759 25.823 144.724 25.8939 144.724C25.9648 144.724 26.0003 144.759 26.0003 144.83ZM26.4149 144.83C26.4149 144.901 26.3795 144.937 26.3086 144.937C26.2377 144.937 26.2023 144.901 26.2023 144.83C26.2023 144.759 26.2377 144.724 26.3086 144.724C26.3795 144.724 26.4149 144.759 26.4149 144.83ZM26.8721 144.83C26.8721 144.901 26.8367 144.937 26.7658 144.937C26.6949 144.937 26.6595 144.901 26.6595 144.83C26.6595 144.759 26.6949 144.724 26.7658 144.724C26.8367 144.724 26.8721 144.759 26.8721 144.83ZM27.7228 144.83C27.7228 144.901 27.6873 144.937 27.6164 144.937C27.5456 144.937 27.5101 144.901 27.5101 144.83C27.5101 144.759 27.5456 144.724 27.6164 144.724C27.6873 144.724 27.7228 144.759 27.7228 144.83ZM28.1162 144.83C28.1162 144.901 28.0807 144.937 28.0099 144.937C27.939 144.937 27.9035 144.901 27.9035 144.83C27.9035 144.759 27.939 144.724 28.0099 144.724C28.0807 144.724 28.1162 144.759 28.1162 144.83ZM28.5415 144.83C28.5415 144.901 28.506 144.937 28.4352 144.937C28.3643 144.937 28.3288 144.901 28.3288 144.83C28.3288 144.759 28.3643 144.724 28.4352 144.724C28.506 144.724 28.5415 144.759 28.5415 144.83ZM28.9668 144.83C28.9668 144.901 28.9314 144.937 28.8605 144.937C28.7896 144.937 28.7541 144.901 28.7541 144.83C28.7541 144.759 28.7896 144.724 28.8605 144.724C28.9314 144.724 28.9668 144.759 28.9668 144.83ZM24.3947 144.83C24.3947 144.901 24.3593 144.937 24.2884 144.937C24.2175 144.937 24.182 144.901 24.182 144.83C24.182 144.759 24.2175 144.724 24.2884 144.724C24.3593 144.724 24.3947 144.759 24.3947 144.83ZM24.7881 144.83C24.7881 144.901 24.7527 144.937 24.6818 144.937C24.6109 144.937 24.5755 144.901 24.5755 144.83C24.5755 144.759 24.6109 144.724 24.6818 144.724C24.7527 144.724 24.7881 144.759 24.7881 144.83ZM25.1922 144.83C25.1922 144.901 25.1567 144.937 25.0858 144.937C25.015 144.937 24.9795 144.901 24.9795 144.83C24.9795 144.759 25.015 144.724 25.0858 144.724C25.1567 144.724 25.1922 144.759 25.1922 144.83ZM25.5749 144.83C25.5749 144.901 25.5395 144.937 25.4686 144.937C25.3977 144.937 25.3623 144.901 25.3623 144.83C25.3623 144.759 25.3977 144.724 25.4686 144.724C25.5395 144.724 25.5749 144.759 25.5749 144.83ZM27.2975 144.83C27.2975 144.901 27.262 144.937 27.1911 144.937C27.1202 144.937 27.0848 144.901 27.0848 144.83C27.0848 144.759 27.1202 144.724 27.1911 144.724C27.262 144.724 27.2975 144.759 27.2975 144.83ZM31.1146 144.83C31.1146 144.901 31.0792 144.937 31.0083 144.937C30.9374 144.937 30.902 144.901 30.902 144.83C30.902 144.759 30.9374 144.724 31.0083 144.724C31.0792 144.724 31.1146 144.759 31.1146 144.83ZM31.5399 144.83C31.5399 144.901 31.5045 144.937 31.4336 144.937C31.3627 144.937 31.3273 144.901 31.3273 144.83C31.3273 144.759 31.3627 144.724 31.4336 144.724C31.5045 144.724 31.5399 144.759 31.5399 144.83ZM24.3841 144.437C24.3841 144.508 24.3486 144.543 24.2777 144.543C24.2069 144.543 24.1714 144.508 24.1714 144.437C24.1714 144.366 24.2069 144.331 24.2777 144.331C24.3486 144.331 24.3841 144.366 24.3841 144.437ZM24.3841 144.065C24.3841 144.136 24.3486 144.171 24.2777 144.171C24.2069 144.171 24.1714 144.136 24.1714 144.065C24.1714 143.994 24.2069 143.958 24.2777 143.958C24.3486 143.958 24.3841 143.994 24.3841 144.065ZM24.3841 143.693C24.3841 143.764 24.3486 143.799 24.2777 143.799C24.2069 143.799 24.1714 143.764 24.1714 143.693C24.1714 143.622 24.2069 143.586 24.2777 143.586C24.3486 143.586 24.3841 143.622 24.3841 143.693ZM24.3841 143.31C24.3841 143.381 24.3486 143.416 24.2777 143.416C24.2069 143.416 24.1714 143.381 24.1714 143.31C24.1714 143.239 24.2069 143.204 24.2777 143.204C24.3486 143.204 24.3841 143.239 24.3841 143.31ZM24.3841 142.927C24.3841 142.998 24.3486 143.033 24.2777 143.033C24.2069 143.033 24.1714 142.998 24.1714 142.927C24.1714 142.856 24.2069 142.821 24.2777 142.821C24.3486 142.821 24.3841 142.856 24.3841 142.927ZM24.3841 142.555C24.3841 142.626 24.3486 142.661 24.2777 142.661C24.2069 142.661 24.1714 142.626 24.1714 142.555C24.1714 142.484 24.2069 142.449 24.2777 142.449C24.3486 142.449 24.3841 142.484 24.3841 142.555ZM24.3841 142.183C24.3841 142.254 24.3486 142.289 24.2777 142.289C24.2069 142.289 24.1714 142.254 24.1714 142.183C24.1714 142.112 24.2069 142.076 24.2777 142.076C24.3486 142.076 24.3841 142.112 24.3841 142.183ZM24.3841 141.8C24.3841 141.871 24.3486 141.906 24.2777 141.906C24.2069 141.906 24.1714 141.871 24.1714 141.8C24.1714 141.729 24.2069 141.694 24.2777 141.694C24.3486 141.694 24.3841 141.729 24.3841 141.8ZM24.3841 141.428C24.3841 141.499 24.3486 141.534 24.2777 141.534C24.2069 141.534 24.1714 141.499 24.1714 141.428C24.1714 141.357 24.2069 141.322 24.2777 141.322C24.3486 141.322 24.3841 141.357 24.3841 141.428ZM24.3841 141.045C24.3841 141.116 24.3486 141.151 24.2777 141.151C24.2069 141.151 24.1714 141.116 24.1714 141.045C24.1714 140.974 24.2069 140.939 24.2777 140.939C24.3486 140.939 24.3841 140.974 24.3841 141.045ZM24.3841 140.662C24.3841 140.733 24.3486 140.769 24.2777 140.769C24.2069 140.769 24.1714 140.733 24.1714 140.662C24.1714 140.591 24.2069 140.556 24.2777 140.556C24.3486 140.556 24.3841 140.591 24.3841 140.662ZM24.3841 140.29C24.3841 140.361 24.3486 140.396 24.2777 140.396C24.2069 140.396 24.1714 140.361 24.1714 140.29C24.1714 140.219 24.2069 140.184 24.2777 140.184C24.3486 140.184 24.3841 140.219 24.3841 140.29ZM27.9035 144.479C27.9035 144.55 27.8681 144.586 27.7972 144.586C27.7263 144.586 27.6909 144.55 27.6909 144.479C27.6909 144.409 27.7263 144.373 27.7972 144.373C27.8681 144.373 27.9035 144.409 27.9035 144.479ZM27.9035 144.107C27.9035 144.178 27.8681 144.214 27.7972 144.214C27.7263 144.214 27.6909 144.178 27.6909 144.107C27.6909 144.036 27.7263 144.001 27.7972 144.001C27.8681 144.001 27.9035 144.036 27.9035 144.107ZM27.9035 143.735C27.9035 143.806 27.8681 143.842 27.7972 143.842C27.7263 143.842 27.6909 143.806 27.6909 143.735C27.6909 143.664 27.7263 143.629 27.7972 143.629C27.8681 143.629 27.9035 143.664 27.9035 143.735ZM27.9035 143.352C27.9035 143.423 27.8681 143.459 27.7972 143.459C27.7263 143.459 27.6909 143.423 27.6909 143.352C27.6909 143.282 27.7263 143.246 27.7972 143.246C27.8681 143.246 27.9035 143.282 27.9035 143.352ZM27.9035 142.97C27.9035 143.041 27.8681 143.076 27.7972 143.076C27.7263 143.076 27.6909 143.041 27.6909 142.97C27.6909 142.899 27.7263 142.863 27.7972 142.863C27.8681 142.863 27.9035 142.899 27.9035 142.97ZM27.9035 142.597C27.9035 142.668 27.8681 142.704 27.7972 142.704C27.7263 142.704 27.6909 142.668 27.6909 142.597C27.6909 142.527 27.7263 142.491 27.7972 142.491C27.8681 142.491 27.9035 142.527 27.9035 142.597ZM27.9035 142.225C27.9035 142.296 27.8681 142.332 27.7972 142.332C27.7263 142.332 27.6909 142.296 27.6909 142.225C27.6909 142.154 27.7263 142.119 27.7972 142.119C27.8681 142.119 27.9035 142.154 27.9035 142.225ZM27.9035 141.843C27.9035 141.913 27.8681 141.949 27.7972 141.949C27.7263 141.949 27.6909 141.913 27.6909 141.843C27.6909 141.772 27.7263 141.736 27.7972 141.736C27.8681 141.736 27.9035 141.772 27.9035 141.843ZM27.9035 141.47C27.9035 141.541 27.8681 141.577 27.7972 141.577C27.7263 141.577 27.6909 141.541 27.6909 141.47C27.6909 141.4 27.7263 141.364 27.7972 141.364C27.8681 141.364 27.9035 141.4 27.9035 141.47ZM27.9035 141.088C27.9035 141.159 27.8681 141.194 27.7972 141.194C27.7263 141.194 27.6909 141.159 27.6909 141.088C27.6909 141.017 27.7263 140.981 27.7972 140.981C27.8681 140.981 27.9035 141.017 27.9035 141.088ZM27.9035 140.705C27.9035 140.776 27.8681 140.811 27.7972 140.811C27.7263 140.811 27.6909 140.776 27.6909 140.705C27.6909 140.634 27.7263 140.599 27.7972 140.599C27.8681 140.599 27.9035 140.634 27.9035 140.705ZM31.5506 144.458C31.5506 144.529 31.5151 144.565 31.4442 144.565C31.3734 144.565 31.3379 144.529 31.3379 144.458C31.3379 144.387 31.3734 144.352 31.4442 144.352C31.5151 144.352 31.5506 144.387 31.5506 144.458ZM31.5506 144.086C31.5506 144.157 31.5151 144.192 31.4442 144.192C31.3734 144.192 31.3379 144.157 31.3379 144.086C31.3379 144.015 31.3734 143.98 31.4442 143.98C31.5151 143.98 31.5506 144.015 31.5506 144.086ZM31.5506 143.714C31.5506 143.785 31.5151 143.82 31.4442 143.82C31.3734 143.82 31.3379 143.785 31.3379 143.714C31.3379 143.643 31.3734 143.608 31.4442 143.608C31.5151 143.608 31.5506 143.643 31.5506 143.714ZM31.5506 143.331C31.5506 143.402 31.5151 143.437 31.4442 143.437C31.3734 143.437 31.3379 143.402 31.3379 143.331C31.3379 143.26 31.3734 143.225 31.4442 143.225C31.5151 143.225 31.5506 143.26 31.5506 143.331ZM31.5506 142.948C31.5506 143.019 31.5151 143.055 31.4442 143.055C31.3734 143.055 31.3379 143.019 31.3379 142.948C31.3379 142.877 31.3734 142.842 31.4442 142.842C31.5151 142.842 31.5506 142.877 31.5506 142.948ZM31.5506 142.576C31.5506 142.647 31.5151 142.683 31.4442 142.683C31.3734 142.683 31.3379 142.647 31.3379 142.576C31.3379 142.505 31.3734 142.47 31.4442 142.47C31.5151 142.47 31.5506 142.505 31.5506 142.576ZM31.5506 142.204C31.5506 142.275 31.5151 142.31 31.4442 142.31C31.3734 142.31 31.3379 142.275 31.3379 142.204C31.3379 142.133 31.3734 142.098 31.4442 142.098C31.5151 142.098 31.5506 142.133 31.5506 142.204ZM31.5506 141.821C31.5506 141.892 31.5151 141.928 31.4442 141.928C31.3734 141.928 31.3379 141.892 31.3379 141.821C31.3379 141.75 31.3734 141.715 31.4442 141.715C31.5151 141.715 31.5506 141.75 31.5506 141.821ZM31.5506 141.449C31.5506 141.52 31.5151 141.555 31.4442 141.555C31.3734 141.555 31.3379 141.52 31.3379 141.449C31.3379 141.378 31.3734 141.343 31.4442 141.343C31.5151 141.343 31.5506 141.378 31.5506 141.449ZM31.5506 141.066C31.5506 141.137 31.5151 141.173 31.4442 141.173C31.3734 141.173 31.3379 141.137 31.3379 141.066C31.3379 140.995 31.3734 140.96 31.4442 140.96C31.5151 140.96 31.5506 140.995 31.5506 141.066ZM31.5506 140.684C31.5506 140.754 31.5151 140.79 31.4442 140.79C31.3734 140.79 31.3379 140.754 31.3379 140.684C31.3379 140.613 31.3734 140.577 31.4442 140.577C31.5151 140.577 31.5506 140.613 31.5506 140.684ZM31.5506 140.311C31.5506 140.382 31.5151 140.418 31.4442 140.418C31.3734 140.418 31.3379 140.382 31.3379 140.311C31.3379 140.241 31.3734 140.205 31.4442 140.205C31.5151 140.205 31.5506 140.241 31.5506 140.311ZM24.9689 136.184C24.9689 136.255 24.9334 136.29 24.8625 136.29C24.7917 136.29 24.7562 136.255 24.7562 136.184C24.7562 136.113 24.7917 136.078 24.8625 136.078C24.9334 136.078 24.9689 136.113 24.9689 136.184ZM25.3091 136.333C25.3091 136.404 25.2737 136.439 25.2028 136.439C25.1319 136.439 25.0965 136.404 25.0965 136.333C25.0965 136.262 25.1319 136.226 25.2028 136.226C25.2737 136.226 25.3091 136.262 25.3091 136.333ZM24.2884 135.876C24.2884 135.946 24.2529 135.982 24.182 135.982C24.1112 135.982 24.0757 135.946 24.0757 135.876C24.0757 135.805 24.1112 135.769 24.182 135.769C24.2529 135.769 24.2884 135.805 24.2884 135.876ZM26.3299 136.779C26.3299 136.85 26.2944 136.886 26.2235 136.886C26.1527 136.886 26.1172 136.85 26.1172 136.779C26.1172 136.708 26.1527 136.673 26.2235 136.673C26.2944 136.673 26.3299 136.708 26.3299 136.779ZM26.6701 136.928C26.6701 136.999 26.6347 137.035 26.5638 137.035C26.4929 137.035 26.4575 136.999 26.4575 136.928C26.4575 136.857 26.4929 136.822 26.5638 136.822C26.6347 136.822 26.6701 136.857 26.6701 136.928ZM25.6494 136.482C25.6494 136.553 25.6139 136.588 25.543 136.588C25.4722 136.588 25.4367 136.553 25.4367 136.482C25.4367 136.411 25.4722 136.375 25.543 136.375C25.6139 136.375 25.6494 136.411 25.6494 136.482ZM25.9896 136.63C25.9896 136.701 25.9542 136.737 25.8833 136.737C25.8124 136.737 25.777 136.701 25.777 136.63C25.777 136.56 25.8124 136.524 25.8833 136.524C25.9542 136.524 25.9896 136.56 25.9896 136.63ZM27.6909 137.364C27.6909 137.435 27.6554 137.47 27.5845 137.47C27.5137 137.47 27.4782 137.435 27.4782 137.364C27.4782 137.293 27.5137 137.258 27.5845 137.258C27.6554 137.258 27.6909 137.293 27.6909 137.364ZM28.0311 137.513C28.0311 137.584 27.9957 137.619 27.9248 137.619C27.8539 137.619 27.8185 137.584 27.8185 137.513C27.8185 137.442 27.8539 137.407 27.9248 137.407C27.9957 137.407 28.0311 137.442 28.0311 137.513ZM27.0104 137.077C27.0104 137.148 26.9749 137.183 26.904 137.183C26.8332 137.183 26.7977 137.148 26.7977 137.077C26.7977 137.006 26.8332 136.971 26.904 136.971C26.9749 136.971 27.0104 137.006 27.0104 137.077ZM27.3506 137.226C27.3506 137.297 27.3152 137.332 27.2443 137.332C27.1734 137.332 27.138 137.297 27.138 137.226C27.138 137.155 27.1734 137.12 27.2443 137.12C27.3152 137.12 27.3506 137.155 27.3506 137.226ZM28.3714 137.662C28.3714 137.733 28.3359 137.768 28.265 137.768C28.1942 137.768 28.1587 137.733 28.1587 137.662C28.1587 137.591 28.1942 137.556 28.265 137.556C28.3359 137.556 28.3714 137.591 28.3714 137.662ZM28.7116 137.811C28.7116 137.882 28.6762 137.917 28.6053 137.917C28.5344 137.917 28.499 137.882 28.499 137.811C28.499 137.74 28.5344 137.704 28.6053 137.704C28.6762 137.704 28.7116 137.74 28.7116 137.811ZM24.6286 136.035C24.6286 136.106 24.5932 136.141 24.5223 136.141C24.4514 136.141 24.416 136.106 24.416 136.035C24.416 135.964 24.4514 135.929 24.5223 135.929C24.5932 135.929 24.6286 135.964 24.6286 136.035ZM29.3921 138.098C29.3921 138.169 29.3567 138.204 29.2858 138.204C29.2149 138.204 29.1795 138.169 29.1795 138.098C29.1795 138.027 29.2149 137.991 29.2858 137.991C29.3567 137.991 29.3921 138.027 29.3921 138.098ZM29.7324 138.247C29.7324 138.318 29.6969 138.353 29.626 138.353C29.5551 138.353 29.5197 138.318 29.5197 138.247C29.5197 138.176 29.5551 138.14 29.626 138.14C29.6969 138.14 29.7324 138.176 29.7324 138.247ZM30.7531 138.693C30.7531 138.764 30.7177 138.8 30.6468 138.8C30.5759 138.8 30.5405 138.764 30.5405 138.693C30.5405 138.622 30.5759 138.587 30.6468 138.587C30.7177 138.587 30.7531 138.622 30.7531 138.693ZM31.0934 138.842C31.0934 138.913 31.0579 138.948 30.987 138.948C30.9161 138.948 30.8807 138.913 30.8807 138.842C30.8807 138.771 30.9161 138.736 30.987 138.736C31.0579 138.736 31.0934 138.771 31.0934 138.842ZM30.0726 138.396C30.0726 138.466 30.0372 138.502 29.9663 138.502C29.8954 138.502 29.86 138.466 29.86 138.396C29.86 138.325 29.8954 138.289 29.9663 138.289C30.0372 138.289 30.0726 138.325 30.0726 138.396ZM30.4129 138.544C30.4129 138.615 30.3774 138.651 30.3065 138.651C30.2356 138.651 30.2002 138.615 30.2002 138.544C30.2002 138.474 30.2356 138.438 30.3065 138.438C30.3774 138.438 30.4129 138.474 30.4129 138.544ZM31.4336 138.991C31.4336 139.062 31.3982 139.097 31.3273 139.097C31.2564 139.097 31.221 139.062 31.221 138.991C31.221 138.92 31.2564 138.885 31.3273 138.885C31.3982 138.885 31.4336 138.92 31.4336 138.991ZM31.7739 139.14C31.7739 139.211 31.7384 139.246 31.6675 139.246C31.5966 139.246 31.5612 139.211 31.5612 139.14C31.5612 139.069 31.5966 139.034 31.6675 139.034C31.7384 139.034 31.7739 139.069 31.7739 139.14ZM29.0519 137.949C29.0519 138.02 29.0164 138.055 28.9455 138.055C28.8747 138.055 28.8392 138.02 28.8392 137.949C28.8392 137.878 28.8747 137.843 28.9455 137.843C29.0164 137.843 29.0519 137.878 29.0519 137.949ZM28.9668 137.577C28.9668 137.648 28.9314 137.683 28.8605 137.683C28.7896 137.683 28.7541 137.648 28.7541 137.577C28.7541 137.506 28.7896 137.47 28.8605 137.47C28.9314 137.47 28.9668 137.506 28.9668 137.577ZM28.9668 137.237C28.9668 137.307 28.9314 137.343 28.8605 137.343C28.7896 137.343 28.7541 137.307 28.7541 137.237C28.7541 137.166 28.7896 137.13 28.8605 137.13C28.9314 137.13 28.9668 137.166 28.9668 137.237ZM28.9668 136.896C28.9668 136.967 28.9314 137.003 28.8605 137.003C28.7896 137.003 28.7541 136.967 28.7541 136.896C28.7541 136.825 28.7896 136.79 28.8605 136.79C28.9314 136.79 28.9668 136.825 28.9668 136.896ZM28.9668 136.556C28.9668 136.627 28.9314 136.662 28.8605 136.662C28.7896 136.662 28.7541 136.627 28.7541 136.556C28.7541 136.485 28.7896 136.45 28.8605 136.45C28.9314 136.45 28.9668 136.485 28.9668 136.556ZM28.9668 136.216C28.9668 136.287 28.9314 136.322 28.8605 136.322C28.7896 136.322 28.7541 136.287 28.7541 136.216C28.7541 136.145 28.7896 136.109 28.8605 136.109C28.9314 136.109 28.9668 136.145 28.9668 136.216ZM28.9668 135.876C28.9668 135.946 28.9314 135.982 28.8605 135.982C28.7896 135.982 28.7541 135.946 28.7541 135.876C28.7541 135.805 28.7896 135.769 28.8605 135.769C28.9314 135.769 28.9668 135.805 28.9668 135.876ZM28.9668 135.535C28.9668 135.606 28.9314 135.642 28.8605 135.642C28.7896 135.642 28.7541 135.606 28.7541 135.535C28.7541 135.464 28.7896 135.429 28.8605 135.429C28.9314 135.429 28.9668 135.464 28.9668 135.535ZM28.9668 135.195C28.9668 135.266 28.9314 135.301 28.8605 135.301C28.7896 135.301 28.7541 135.266 28.7541 135.195C28.7541 135.124 28.7896 135.089 28.8605 135.089C28.9314 135.089 28.9668 135.124 28.9668 135.195ZM28.9668 134.855C28.9668 134.926 28.9314 134.961 28.8605 134.961C28.7896 134.961 28.7541 134.926 28.7541 134.855C28.7541 134.784 28.7896 134.748 28.8605 134.748C28.9314 134.748 28.9668 134.784 28.9668 134.855ZM28.9668 134.515C28.9668 134.585 28.9314 134.621 28.8605 134.621C28.7896 134.621 28.7541 134.585 28.7541 134.515C28.7541 134.444 28.7896 134.408 28.8605 134.408C28.9314 134.408 28.9668 134.444 28.9668 134.515ZM28.9668 134.174C28.9668 134.245 28.9314 134.281 28.8605 134.281C28.7896 134.281 28.7541 134.245 28.7541 134.174C28.7541 134.103 28.7896 134.068 28.8605 134.068C28.9314 134.068 28.9668 134.103 28.9668 134.174ZM24.9689 135.557C24.9689 135.627 24.9334 135.663 24.8625 135.663C24.7917 135.663 24.7562 135.627 24.7562 135.557C24.7562 135.486 24.7917 135.45 24.8625 135.45C24.9334 135.45 24.9689 135.486 24.9689 135.557ZM25.3091 135.408C25.3091 135.479 25.2737 135.514 25.2028 135.514C25.1319 135.514 25.0965 135.479 25.0965 135.408C25.0965 135.337 25.1319 135.301 25.2028 135.301C25.2737 135.301 25.3091 135.337 25.3091 135.408ZM26.3299 134.961C26.3299 135.032 26.2944 135.067 26.2235 135.067C26.1527 135.067 26.1172 135.032 26.1172 134.961C26.1172 134.89 26.1527 134.855 26.2235 134.855C26.2944 134.855 26.3299 134.89 26.3299 134.961ZM26.6701 134.812C26.6701 134.883 26.6347 134.919 26.5638 134.919C26.4929 134.919 26.4575 134.883 26.4575 134.812C26.4575 134.741 26.4929 134.706 26.5638 134.706C26.6347 134.706 26.6701 134.741 26.6701 134.812ZM25.6494 135.259C25.6494 135.33 25.6139 135.365 25.543 135.365C25.4722 135.365 25.4367 135.33 25.4367 135.259C25.4367 135.188 25.4722 135.153 25.543 135.153C25.6139 135.153 25.6494 135.188 25.6494 135.259ZM25.9896 135.11C25.9896 135.181 25.9542 135.216 25.8833 135.216C25.8124 135.216 25.777 135.181 25.777 135.11C25.777 135.039 25.8124 135.004 25.8833 135.004C25.9542 135.004 25.9896 135.039 25.9896 135.11ZM27.6909 134.376C27.6909 134.447 27.6554 134.483 27.5845 134.483C27.5137 134.483 27.4782 134.447 27.4782 134.376C27.4782 134.305 27.5137 134.27 27.5845 134.27C27.6554 134.27 27.6909 134.305 27.6909 134.376ZM28.0311 134.227C28.0311 134.298 27.9957 134.334 27.9248 134.334C27.8539 134.334 27.8185 134.298 27.8185 134.227C27.8185 134.157 27.8539 134.121 27.9248 134.121C27.9957 134.121 28.0311 134.157 28.0311 134.227ZM27.0104 134.663C27.0104 134.734 26.9749 134.77 26.904 134.77C26.8332 134.77 26.7977 134.734 26.7977 134.663C26.7977 134.593 26.8332 134.557 26.904 134.557C26.9749 134.557 27.0104 134.593 27.0104 134.663ZM27.3506 134.515C27.3506 134.585 27.3152 134.621 27.2443 134.621C27.1734 134.621 27.138 134.585 27.138 134.515C27.138 134.444 27.1734 134.408 27.2443 134.408C27.3152 134.408 27.3506 134.444 27.3506 134.515ZM28.3714 134.079C28.3714 134.15 28.3359 134.185 28.265 134.185C28.1942 134.185 28.1587 134.15 28.1587 134.079C28.1587 134.008 28.1942 133.972 28.265 133.972C28.3359 133.972 28.3714 134.008 28.3714 134.079ZM28.7116 133.93C28.7116 134.001 28.6762 134.036 28.6053 134.036C28.5344 134.036 28.499 134.001 28.499 133.93C28.499 133.859 28.5344 133.823 28.6053 133.823C28.6762 133.823 28.7116 133.859 28.7116 133.93ZM24.6286 135.705C24.6286 135.776 24.5932 135.812 24.5223 135.812C24.4514 135.812 24.416 135.776 24.416 135.705C24.416 135.635 24.4514 135.599 24.5223 135.599C24.5932 135.599 24.6286 135.635 24.6286 135.705ZM29.3921 133.643C29.3921 133.714 29.3567 133.749 29.2858 133.749C29.2149 133.749 29.1795 133.714 29.1795 133.643C29.1795 133.572 29.2149 133.536 29.2858 133.536C29.3567 133.536 29.3921 133.572 29.3921 133.643ZM29.7324 133.494C29.7324 133.565 29.6969 133.6 29.626 133.6C29.5551 133.6 29.5197 133.565 29.5197 133.494C29.5197 133.423 29.5551 133.387 29.626 133.387C29.6969 133.387 29.7324 133.423 29.7324 133.494ZM30.7531 133.047C30.7531 133.118 30.7177 133.154 30.6468 133.154C30.5759 133.154 30.5405 133.118 30.5405 133.047C30.5405 132.976 30.5759 132.941 30.6468 132.941C30.7177 132.941 30.7531 132.976 30.7531 133.047ZM31.0934 132.898C31.0934 132.969 31.0579 133.005 30.987 133.005C30.9161 133.005 30.8807 132.969 30.8807 132.898C30.8807 132.827 30.9161 132.792 30.987 132.792C31.0579 132.792 31.0934 132.827 31.0934 132.898ZM30.0726 133.345C30.0726 133.416 30.0372 133.451 29.9663 133.451C29.8954 133.451 29.86 133.416 29.86 133.345C29.86 133.274 29.8954 133.239 29.9663 133.239C30.0372 133.239 30.0726 133.274 30.0726 133.345ZM30.4129 133.196C30.4129 133.267 30.3774 133.302 30.3065 133.302C30.2356 133.302 30.2002 133.267 30.2002 133.196C30.2002 133.125 30.2356 133.09 30.3065 133.09C30.3774 133.09 30.4129 133.125 30.4129 133.196ZM31.4336 132.75C31.4336 132.82 31.3982 132.856 31.3273 132.856C31.2564 132.856 31.221 132.82 31.221 132.75C31.221 132.679 31.2564 132.643 31.3273 132.643C31.3982 132.643 31.4336 132.679 31.4336 132.75ZM31.7739 132.601C31.7739 132.672 31.7384 132.707 31.6675 132.707C31.5966 132.707 31.5612 132.672 31.5612 132.601C31.5612 132.53 31.5966 132.494 31.6675 132.494C31.7384 132.494 31.7739 132.53 31.7739 132.601ZM29.0519 133.792C29.0519 133.862 29.0164 133.898 28.9455 133.898C28.8747 133.898 28.8392 133.862 28.8392 133.792C28.8392 133.721 28.8747 133.685 28.9455 133.685C29.0164 133.685 29.0519 133.721 29.0519 133.792ZM29.3815 131.02C29.3815 131.091 29.346 131.127 29.2752 131.127C29.2043 131.127 29.1688 131.091 29.1688 131.02C29.1688 130.949 29.2043 130.914 29.2752 130.914C29.346 130.914 29.3815 130.949 29.3815 131.02ZM29.8174 131.02C29.8174 131.091 29.782 131.127 29.7111 131.127C29.6402 131.127 29.6048 131.091 29.6048 131.02C29.6048 130.949 29.6402 130.914 29.7111 130.914C29.782 130.914 29.8174 130.949 29.8174 131.02ZM30.2534 131.02C30.2534 131.091 30.2179 131.127 30.147 131.127C30.0762 131.127 30.0407 131.091 30.0407 131.02C30.0407 130.949 30.0762 130.914 30.147 130.914C30.2179 130.914 30.2534 130.949 30.2534 131.02ZM30.6893 131.02C30.6893 131.091 30.6539 131.127 30.583 131.127C30.5121 131.127 30.4767 131.091 30.4767 131.02C30.4767 130.949 30.5121 130.914 30.583 130.914C30.6539 130.914 30.6893 130.949 30.6893 131.02ZM26.0003 131.02C26.0003 131.091 25.9648 131.127 25.8939 131.127C25.823 131.127 25.7876 131.091 25.7876 131.02C25.7876 130.949 25.823 130.914 25.8939 130.914C25.9648 130.914 26.0003 130.949 26.0003 131.02ZM26.4149 131.02C26.4149 131.091 26.3795 131.127 26.3086 131.127C26.2377 131.127 26.2023 131.091 26.2023 131.02C26.2023 130.949 26.2377 130.914 26.3086 130.914C26.3795 130.914 26.4149 130.949 26.4149 131.02ZM26.8721 131.02C26.8721 131.091 26.8367 131.127 26.7658 131.127C26.6949 131.127 26.6595 131.091 26.6595 131.02C26.6595 130.949 26.6949 130.914 26.7658 130.914C26.8367 130.914 26.8721 130.949 26.8721 131.02ZM27.7228 131.02C27.7228 131.091 27.6873 131.127 27.6164 131.127C27.5456 131.127 27.5101 131.091 27.5101 131.02C27.5101 130.949 27.5456 130.914 27.6164 130.914C27.6873 130.914 27.7228 130.949 27.7228 131.02ZM28.1162 131.02C28.1162 131.091 28.0807 131.127 28.0099 131.127C27.939 131.127 27.9035 131.091 27.9035 131.02C27.9035 130.949 27.939 130.914 28.0099 130.914C28.0807 130.914 28.1162 130.949 28.1162 131.02ZM28.5415 131.02C28.5415 131.091 28.506 131.127 28.4352 131.127C28.3643 131.127 28.3288 131.091 28.3288 131.02C28.3288 130.949 28.3643 130.914 28.4352 130.914C28.506 130.914 28.5415 130.949 28.5415 131.02ZM28.9668 131.02C28.9668 131.091 28.9314 131.127 28.8605 131.127C28.7896 131.127 28.7541 131.091 28.7541 131.02C28.7541 130.949 28.7896 130.914 28.8605 130.914C28.9314 130.914 28.9668 130.949 28.9668 131.02ZM24.3947 131.02C24.3947 131.091 24.3593 131.127 24.2884 131.127C24.2175 131.127 24.182 131.091 24.182 131.02C24.182 130.949 24.2175 130.914 24.2884 130.914C24.3593 130.914 24.3947 130.949 24.3947 131.02ZM24.7881 131.02C24.7881 131.091 24.7527 131.127 24.6818 131.127C24.6109 131.127 24.5755 131.091 24.5755 131.02C24.5755 130.949 24.6109 130.914 24.6818 130.914C24.7527 130.914 24.7881 130.949 24.7881 131.02ZM25.1922 131.02C25.1922 131.091 25.1567 131.127 25.0858 131.127C25.0149 131.127 24.9795 131.091 24.9795 131.02C24.9795 130.949 25.0149 130.914 25.0858 130.914C25.1567 130.914 25.1922 130.949 25.1922 131.02ZM25.5749 131.02C25.5749 131.091 25.5395 131.127 25.4686 131.127C25.3977 131.127 25.3623 131.091 25.3623 131.02C25.3623 130.949 25.3977 130.914 25.4686 130.914C25.5395 130.914 25.5749 130.949 25.5749 131.02ZM27.2975 131.02C27.2975 131.091 27.262 131.127 27.1911 131.127C27.1202 131.127 27.0848 131.091 27.0848 131.02C27.0848 130.949 27.1202 130.914 27.1911 130.914C27.262 130.914 27.2975 130.949 27.2975 131.02ZM31.1146 131.02C31.1146 131.091 31.0792 131.127 31.0083 131.127C30.9374 131.127 30.902 131.091 30.902 131.02C30.902 130.949 30.9374 130.914 31.0083 130.914C31.0792 130.914 31.1146 130.949 31.1146 131.02ZM31.5399 131.02C31.5399 131.091 31.5045 131.127 31.4336 131.127C31.3627 131.127 31.3273 131.091 31.3273 131.02C31.3273 130.949 31.3627 130.914 31.4336 130.914C31.5045 130.914 31.5399 130.949 31.5399 131.02ZM31.5612 130.669C31.5612 130.74 31.5258 130.776 31.4549 130.776C31.384 130.776 31.3485 130.74 31.3485 130.669C31.3485 130.598 31.384 130.563 31.4549 130.563C31.5258 130.563 31.5612 130.598 31.5612 130.669ZM31.5612 130.297C31.5612 130.368 31.5258 130.403 31.4549 130.403C31.384 130.403 31.3485 130.368 31.3485 130.297C31.3485 130.226 31.384 130.191 31.4549 130.191C31.5258 130.191 31.5612 130.226 31.5612 130.297ZM31.5612 129.925C31.5612 129.996 31.5258 130.031 31.4549 130.031C31.384 130.031 31.3485 129.996 31.3485 129.925C31.3485 129.854 31.384 129.819 31.4549 129.819C31.5258 129.819 31.5612 129.854 31.5612 129.925ZM31.5612 129.553C31.5612 129.624 31.5258 129.659 31.4549 129.659C31.384 129.659 31.3485 129.624 31.3485 129.553C31.3485 129.482 31.384 129.447 31.4549 129.447C31.5258 129.447 31.5612 129.482 31.5612 129.553ZM31.5612 129.159C31.5612 129.23 31.5258 129.266 31.4549 129.266C31.384 129.266 31.3485 129.23 31.3485 129.159C31.3485 129.089 31.384 129.053 31.4549 129.053C31.5258 129.053 31.5612 129.089 31.5612 129.159ZM31.5612 128.755C31.5612 128.826 31.5258 128.862 31.4549 128.862C31.384 128.862 31.3485 128.826 31.3485 128.755C31.3485 128.685 31.384 128.649 31.4549 128.649C31.5258 128.649 31.5612 128.685 31.5612 128.755ZM31.5506 128.351C31.5506 128.422 31.5151 128.458 31.4442 128.458C31.3734 128.458 31.3379 128.422 31.3379 128.351C31.3379 128.28 31.3734 128.245 31.4442 128.245C31.5151 128.245 31.5506 128.28 31.5506 128.351ZM31.4974 127.937C31.4974 128.008 31.462 128.043 31.3911 128.043C31.3202 128.043 31.2847 128.008 31.2847 127.937C31.2847 127.866 31.3202 127.83 31.3911 127.83C31.462 127.83 31.4974 127.866 31.4974 127.937ZM31.3911 127.49C31.3911 127.561 31.3556 127.596 31.2847 127.596C31.2139 127.596 31.1784 127.561 31.1784 127.49C31.1784 127.419 31.2139 127.384 31.2847 127.384C31.3556 127.384 31.3911 127.419 31.3911 127.49ZM24.3628 130.669C24.3628 130.74 24.3274 130.776 24.2565 130.776C24.1856 130.776 24.1501 130.74 24.1501 130.669C24.1501 130.598 24.1856 130.563 24.2565 130.563C24.3274 130.563 24.3628 130.598 24.3628 130.669ZM24.3628 130.297C24.3628 130.368 24.3274 130.403 24.2565 130.403C24.1856 130.403 24.1501 130.368 24.1501 130.297C24.1501 130.226 24.1856 130.191 24.2565 130.191C24.3274 130.191 24.3628 130.226 24.3628 130.297ZM24.3628 129.925C24.3628 129.996 24.3274 130.031 24.2565 130.031C24.1856 130.031 24.1501 129.996 24.1501 129.925C24.1501 129.854 24.1856 129.819 24.2565 129.819C24.3274 129.819 24.3628 129.854 24.3628 129.925ZM24.3628 129.553C24.3628 129.624 24.3274 129.659 24.2565 129.659C24.1856 129.659 24.1501 129.624 24.1501 129.553C24.1501 129.482 24.1856 129.447 24.2565 129.447C24.3274 129.447 24.3628 129.482 24.3628 129.553ZM24.3628 129.181C24.3628 129.252 24.3274 129.287 24.2565 129.287C24.1856 129.287 24.1501 129.252 24.1501 129.181C24.1501 129.11 24.1856 129.074 24.2565 129.074C24.3274 129.074 24.3628 129.11 24.3628 129.181ZM24.3628 128.809C24.3628 128.879 24.3274 128.915 24.2565 128.915C24.1856 128.915 24.1501 128.879 24.1501 128.809C24.1501 128.738 24.1856 128.702 24.2565 128.702C24.3274 128.702 24.3628 128.738 24.3628 128.809ZM24.3734 128.436C24.3734 128.507 24.338 128.543 24.2671 128.543C24.1962 128.543 24.1608 128.507 24.1608 128.436C24.1608 128.366 24.1962 128.33 24.2671 128.33C24.338 128.33 24.3734 128.366 24.3734 128.436ZM24.4053 128.064C24.4053 128.135 24.3699 128.171 24.299 128.171C24.2281 128.171 24.1927 128.135 24.1927 128.064C24.1927 127.993 24.2281 127.958 24.299 127.958C24.3699 127.958 24.4053 127.993 24.4053 128.064ZM24.4691 127.692C24.4691 127.763 24.4337 127.798 24.3628 127.798C24.2919 127.798 24.2565 127.763 24.2565 127.692C24.2565 127.621 24.2919 127.586 24.3628 127.586C24.4337 127.586 24.4691 127.621 24.4691 127.692ZM31.221 127.086C31.221 127.157 31.1855 127.192 31.1146 127.192C31.0437 127.192 31.0083 127.157 31.0083 127.086C31.0083 127.015 31.0437 126.98 31.1146 126.98C31.1855 126.98 31.221 127.015 31.221 127.086ZM24.5967 127.331C24.5967 127.402 24.5613 127.437 24.4904 127.437C24.4195 127.437 24.3841 127.402 24.3841 127.331C24.3841 127.26 24.4195 127.224 24.4904 127.224C24.5613 127.224 24.5967 127.26 24.5967 127.331ZM24.7562 127.001C24.7562 127.072 24.7208 127.107 24.6499 127.107C24.579 127.107 24.5436 127.072 24.5436 127.001C24.5436 126.93 24.579 126.895 24.6499 126.895C24.7208 126.895 24.7562 126.93 24.7562 127.001ZM24.9582 126.671C24.9582 126.742 24.9228 126.778 24.8519 126.778C24.781 126.778 24.7456 126.742 24.7456 126.671C24.7456 126.601 24.781 126.565 24.8519 126.565C24.9228 126.565 24.9582 126.601 24.9582 126.671ZM25.2134 126.384C25.2134 126.455 25.178 126.491 25.1071 126.491C25.0362 126.491 25.0008 126.455 25.0008 126.384C25.0008 126.313 25.0362 126.278 25.1071 126.278C25.178 126.278 25.2134 126.313 25.2134 126.384ZM25.5111 126.129C25.5111 126.2 25.4757 126.235 25.4048 126.235C25.3339 126.235 25.2985 126.2 25.2985 126.129C25.2985 126.058 25.3339 126.023 25.4048 126.023C25.4757 126.023 25.5111 126.058 25.5111 126.129ZM25.8195 125.895C25.8195 125.966 25.7841 126.002 25.7132 126.002C25.6423 126.002 25.6068 125.966 25.6068 125.895C25.6068 125.824 25.6423 125.789 25.7132 125.789C25.7841 125.789 25.8195 125.824 25.8195 125.895ZM26.1704 125.725C26.1704 125.796 26.1349 125.831 26.0641 125.831C25.9932 125.831 25.9577 125.796 25.9577 125.725C25.9577 125.654 25.9932 125.619 26.0641 125.619C26.1349 125.619 26.1704 125.654 26.1704 125.725ZM26.5425 125.597C26.5425 125.668 26.5071 125.704 26.4362 125.704C26.3653 125.704 26.3299 125.668 26.3299 125.597C26.3299 125.527 26.3653 125.491 26.4362 125.491C26.5071 125.491 26.5425 125.527 26.5425 125.597ZM26.9147 125.491C26.9147 125.562 26.8792 125.597 26.8083 125.597C26.7375 125.597 26.702 125.562 26.702 125.491C26.702 125.42 26.7375 125.385 26.8083 125.385C26.8792 125.385 26.9147 125.42 26.9147 125.491ZM27.2868 125.406C27.2868 125.477 27.2514 125.512 27.1805 125.512C27.1096 125.512 27.0742 125.477 27.0742 125.406C27.0742 125.335 27.1096 125.3 27.1805 125.3C27.2514 125.3 27.2868 125.335 27.2868 125.406ZM27.6802 125.364C27.6802 125.434 27.6448 125.47 27.5739 125.47C27.503 125.47 27.4676 125.434 27.4676 125.364C27.4676 125.293 27.503 125.257 27.5739 125.257C27.6448 125.257 27.6802 125.293 27.6802 125.364ZM28.0949 125.353C28.0949 125.424 28.0595 125.459 27.9886 125.459C27.9177 125.459 27.8823 125.424 27.8823 125.353C27.8823 125.282 27.9177 125.247 27.9886 125.247C28.0595 125.247 28.0949 125.282 28.0949 125.353ZM28.4883 125.364C28.4883 125.434 28.4529 125.47 28.382 125.47C28.3111 125.47 28.2757 125.434 28.2757 125.364C28.2757 125.293 28.3111 125.257 28.382 125.257C28.4529 125.257 28.4883 125.293 28.4883 125.364ZM28.8605 125.417C28.8605 125.488 28.825 125.523 28.7541 125.523C28.6833 125.523 28.6478 125.488 28.6478 125.417C28.6478 125.346 28.6833 125.31 28.7541 125.31C28.825 125.31 28.8605 125.346 28.8605 125.417ZM29.2539 125.512C29.2539 125.583 29.2184 125.619 29.1476 125.619C29.0767 125.619 29.0412 125.583 29.0412 125.512C29.0412 125.442 29.0767 125.406 29.1476 125.406C29.2184 125.406 29.2539 125.442 29.2539 125.512ZM29.6473 125.661C29.6473 125.732 29.6119 125.768 29.541 125.768C29.4701 125.768 29.4346 125.732 29.4346 125.661C29.4346 125.59 29.4701 125.555 29.541 125.555C29.6119 125.555 29.6473 125.59 29.6473 125.661ZM30.0088 125.853C30.0088 125.924 29.9734 125.959 29.9025 125.959C29.8316 125.959 29.7962 125.924 29.7962 125.853C29.7962 125.782 29.8316 125.746 29.9025 125.746C29.9734 125.746 30.0088 125.782 30.0088 125.853ZM30.4022 126.076C30.4022 126.147 30.3668 126.182 30.2959 126.182C30.225 126.182 30.1896 126.147 30.1896 126.076C30.1896 126.005 30.225 125.97 30.2959 125.97C30.3668 125.97 30.4022 126.005 30.4022 126.076ZM30.7318 126.374C30.7318 126.445 30.6964 126.48 30.6255 126.48C30.5546 126.48 30.5192 126.445 30.5192 126.374C30.5192 126.303 30.5546 126.267 30.6255 126.267C30.6964 126.267 30.7318 126.303 30.7318 126.374ZM30.9977 126.714C30.9977 126.785 30.9622 126.82 30.8913 126.82C30.8205 126.82 30.785 126.785 30.785 126.714C30.785 126.643 30.8205 126.608 30.8913 126.608C30.9622 126.608 30.9977 126.643 30.9977 126.714ZM29.5091 121.698C29.5091 121.769 29.4736 121.805 29.4027 121.805C29.3319 121.805 29.2964 121.769 29.2964 121.698C29.2964 121.627 29.3319 121.592 29.4027 121.592C29.4736 121.592 29.5091 121.627 29.5091 121.698ZM29.9344 121.698C29.9344 121.769 29.8989 121.805 29.8281 121.805C29.7572 121.805 29.7217 121.769 29.7217 121.698C29.7217 121.627 29.7572 121.592 29.8281 121.592C29.8989 121.592 29.9344 121.627 29.9344 121.698ZM30.3703 121.698C30.3703 121.769 30.3349 121.805 30.264 121.805C30.1931 121.805 30.1577 121.769 30.1577 121.698C30.1577 121.627 30.1931 121.592 30.264 121.592C30.3349 121.592 30.3703 121.627 30.3703 121.698ZM30.8063 121.698C30.8063 121.769 30.7708 121.805 30.6999 121.805C30.6291 121.805 30.5936 121.769 30.5936 121.698C30.5936 121.627 30.6291 121.592 30.6999 121.592C30.7708 121.592 30.8063 121.627 30.8063 121.698ZM28.6903 121.698C28.6903 121.769 28.6549 121.805 28.584 121.805C28.5131 121.805 28.4777 121.769 28.4777 121.698C28.4777 121.627 28.5131 121.592 28.584 121.592C28.6549 121.592 28.6903 121.627 28.6903 121.698ZM29.105 121.698C29.105 121.769 29.0696 121.805 28.9987 121.805C28.9278 121.805 28.8924 121.769 28.8924 121.698C28.8924 121.627 28.9278 121.592 28.9987 121.592C29.0696 121.592 29.105 121.627 29.105 121.698ZM31.2316 121.698C31.2316 121.769 31.1961 121.805 31.1253 121.805C31.0544 121.805 31.0189 121.769 31.0189 121.698C31.0189 121.627 31.0544 121.592 31.1253 121.592C31.1961 121.592 31.2316 121.627 31.2316 121.698ZM31.6569 121.698C31.6569 121.769 31.6215 121.805 31.5506 121.805C31.4797 121.805 31.4442 121.769 31.4442 121.698C31.4442 121.627 31.4797 121.592 31.5506 121.592C31.6215 121.592 31.6569 121.627 31.6569 121.698ZM24.2884 124.612C24.2884 124.683 24.2529 124.718 24.182 124.718C24.1112 124.718 24.0757 124.683 24.0757 124.612C24.0757 124.541 24.1112 124.505 24.182 124.505C24.2529 124.505 24.2884 124.541 24.2884 124.612ZM24.9689 124.165C24.9689 124.236 24.9334 124.271 24.8625 124.271C24.7917 124.271 24.7562 124.236 24.7562 124.165C24.7562 124.094 24.7917 124.059 24.8625 124.059C24.9334 124.059 24.9689 124.094 24.9689 124.165ZM25.3091 123.942C25.3091 124.013 25.2737 124.048 25.2028 124.048C25.1319 124.048 25.0965 124.013 25.0965 123.942C25.0965 123.871 25.1319 123.836 25.2028 123.836C25.2737 123.836 25.3091 123.871 25.3091 123.942ZM26.3299 123.283C26.3299 123.353 26.2944 123.389 26.2235 123.389C26.1527 123.389 26.1172 123.353 26.1172 123.283C26.1172 123.212 26.1527 123.176 26.2235 123.176C26.2944 123.176 26.3299 123.212 26.3299 123.283ZM26.6701 123.059C26.6701 123.13 26.6347 123.166 26.5638 123.166C26.4929 123.166 26.4575 123.13 26.4575 123.059C26.4575 122.988 26.4929 122.953 26.5638 122.953C26.6347 122.953 26.6701 122.988 26.6701 123.059ZM25.6494 123.719C25.6494 123.789 25.6139 123.825 25.543 123.825C25.4722 123.825 25.4367 123.789 25.4367 123.719C25.4367 123.648 25.4722 123.612 25.543 123.612C25.6139 123.612 25.6494 123.648 25.6494 123.719ZM25.9896 123.506C25.9896 123.577 25.9542 123.612 25.8833 123.612C25.8124 123.612 25.777 123.577 25.777 123.506C25.777 123.435 25.8124 123.4 25.8833 123.4C25.9542 123.4 25.9896 123.435 25.9896 123.506ZM27.6909 122.4C27.6909 122.471 27.6554 122.506 27.5845 122.506C27.5137 122.506 27.4782 122.471 27.4782 122.4C27.4782 122.329 27.5137 122.294 27.5845 122.294C27.6554 122.294 27.6909 122.329 27.6909 122.4ZM28.0311 122.166C28.0311 122.237 27.9957 122.272 27.9248 122.272C27.8539 122.272 27.8185 122.237 27.8185 122.166C27.8185 122.095 27.8539 122.06 27.9248 122.06C27.9957 122.06 28.0311 122.095 28.0311 122.166ZM27.0104 122.825C27.0104 122.896 26.9749 122.932 26.904 122.932C26.8332 122.932 26.7977 122.896 26.7977 122.825C26.7977 122.755 26.8332 122.719 26.904 122.719C26.9749 122.719 27.0104 122.755 27.0104 122.825ZM27.3506 122.613C27.3506 122.684 27.3152 122.719 27.2443 122.719C27.1734 122.719 27.138 122.684 27.138 122.613C27.138 122.542 27.1734 122.506 27.2443 122.506C27.3152 122.506 27.3506 122.542 27.3506 122.613ZM28.3714 121.943C28.3714 122.014 28.3359 122.049 28.265 122.049C28.1942 122.049 28.1587 122.014 28.1587 121.943C28.1587 121.872 28.1942 121.837 28.265 121.837C28.3359 121.837 28.3714 121.872 28.3714 121.943ZM24.6286 124.399C24.6286 124.47 24.5932 124.505 24.5223 124.505C24.4514 124.505 24.416 124.47 24.416 124.399C24.416 124.328 24.4514 124.293 24.5223 124.293C24.5932 124.293 24.6286 124.328 24.6286 124.399ZM24.2884 118.785C24.2884 118.856 24.2529 118.891 24.182 118.891C24.1112 118.891 24.0757 118.856 24.0757 118.785C24.0757 118.714 24.1112 118.679 24.182 118.679C24.2529 118.679 24.2884 118.714 24.2884 118.785ZM24.9689 119.232C24.9689 119.302 24.9334 119.338 24.8625 119.338C24.7917 119.338 24.7562 119.302 24.7562 119.232C24.7562 119.161 24.7917 119.125 24.8625 119.125C24.9334 119.125 24.9689 119.161 24.9689 119.232ZM25.3091 119.455C25.3091 119.526 25.2737 119.561 25.2028 119.561C25.1319 119.561 25.0965 119.526 25.0965 119.455C25.0965 119.384 25.1319 119.348 25.2028 119.348C25.2737 119.348 25.3091 119.384 25.3091 119.455ZM26.3299 120.114C26.3299 120.185 26.2944 120.22 26.2235 120.22C26.1527 120.22 26.1172 120.185 26.1172 120.114C26.1172 120.043 26.1527 120.008 26.2235 120.008C26.2944 120.008 26.3299 120.043 26.3299 120.114ZM26.6701 120.337C26.6701 120.408 26.6347 120.444 26.5638 120.444C26.4929 120.444 26.4575 120.408 26.4575 120.337C26.4575 120.266 26.4929 120.231 26.5638 120.231C26.6347 120.231 26.6701 120.266 26.6701 120.337ZM25.6494 119.678C25.6494 119.749 25.6139 119.784 25.543 119.784C25.4722 119.784 25.4367 119.749 25.4367 119.678C25.4367 119.607 25.4722 119.572 25.543 119.572C25.6139 119.572 25.6494 119.607 25.6494 119.678ZM25.9896 119.891C25.9896 119.962 25.9542 119.997 25.8833 119.997C25.8124 119.997 25.777 119.962 25.777 119.891C25.777 119.82 25.8124 119.784 25.8833 119.784C25.9542 119.784 25.9896 119.82 25.9896 119.891ZM27.6909 120.997C27.6909 121.067 27.6554 121.103 27.5845 121.103C27.5137 121.103 27.4782 121.067 27.4782 120.997C27.4782 120.926 27.5137 120.89 27.5845 120.89C27.6554 120.89 27.6909 120.926 27.6909 120.997ZM28.0311 121.23C28.0311 121.301 27.9957 121.337 27.9248 121.337C27.8539 121.337 27.8185 121.301 27.8185 121.23C27.8185 121.16 27.8539 121.124 27.9248 121.124C27.9957 121.124 28.0311 121.16 28.0311 121.23ZM27.0104 120.571C27.0104 120.642 26.9749 120.678 26.904 120.678C26.8332 120.678 26.7977 120.642 26.7977 120.571C26.7977 120.5 26.8332 120.465 26.904 120.465C26.9749 120.465 27.0104 120.5 27.0104 120.571ZM27.3506 120.784C27.3506 120.855 27.3152 120.89 27.2443 120.89C27.1734 120.89 27.138 120.855 27.138 120.784C27.138 120.713 27.1734 120.678 27.2443 120.678C27.3152 120.678 27.3506 120.713 27.3506 120.784ZM28.3714 121.454C28.3714 121.525 28.3359 121.56 28.265 121.56C28.1942 121.56 28.1587 121.525 28.1587 121.454C28.1587 121.383 28.1942 121.347 28.265 121.347C28.3359 121.347 28.3714 121.383 28.3714 121.454ZM24.6286 118.998C24.6286 119.068 24.5932 119.104 24.5223 119.104C24.4514 119.104 24.416 119.068 24.416 118.998C24.416 118.927 24.4514 118.891 24.5223 118.891C24.5932 118.891 24.6286 118.927 24.6286 118.998ZM29.3602 112.968C29.3602 113.039 29.3248 113.074 29.2539 113.074C29.183 113.074 29.1476 113.039 29.1476 112.968C29.1476 112.897 29.183 112.861 29.2539 112.861C29.3248 112.861 29.3602 112.897 29.3602 112.968ZM29.8068 112.968C29.8068 113.039 29.7713 113.074 29.7005 113.074C29.6296 113.074 29.5941 113.039 29.5941 112.968C29.5941 112.897 29.6296 112.861 29.7005 112.861C29.7713 112.861 29.8068 112.897 29.8068 112.968ZM30.2534 112.968C30.2534 113.039 30.2179 113.074 30.147 113.074C30.0762 113.074 30.0407 113.039 30.0407 112.968C30.0407 112.897 30.0762 112.861 30.147 112.861C30.2179 112.861 30.2534 112.897 30.2534 112.968ZM30.6999 112.968C30.6999 113.039 30.6645 113.074 30.5936 113.074C30.5227 113.074 30.4873 113.039 30.4873 112.968C30.4873 112.897 30.5227 112.861 30.5936 112.861C30.6645 112.861 30.6999 112.897 30.6999 112.968ZM25.8939 112.968C25.8939 113.039 25.8585 113.074 25.7876 113.074C25.7167 113.074 25.6813 113.039 25.6813 112.968C25.6813 112.897 25.7167 112.861 25.7876 112.861C25.8585 112.861 25.8939 112.897 25.8939 112.968ZM26.3192 112.968C26.3192 113.039 26.2838 113.074 26.2129 113.074C26.142 113.074 26.1066 113.039 26.1066 112.968C26.1066 112.897 26.142 112.861 26.2129 112.861C26.2838 112.861 26.3192 112.897 26.3192 112.968ZM26.7871 112.968C26.7871 113.039 26.7516 113.074 26.6808 113.074C26.6099 113.074 26.5744 113.039 26.5744 112.968C26.5744 112.897 26.6099 112.861 26.6808 112.861C26.7516 112.861 26.7871 112.897 26.7871 112.968ZM27.659 112.968C27.659 113.039 27.6235 113.074 27.5526 113.074C27.4818 113.074 27.4463 113.039 27.4463 112.968C27.4463 112.897 27.4818 112.861 27.5526 112.861C27.6235 112.861 27.659 112.897 27.659 112.968ZM28.063 112.968C28.063 113.039 28.0276 113.074 27.9567 113.074C27.8858 113.074 27.8504 113.039 27.8504 112.968C27.8504 112.897 27.8858 112.861 27.9567 112.861C28.0276 112.861 28.063 112.897 28.063 112.968ZM28.499 112.968C28.499 113.039 28.4635 113.074 28.3926 113.074C28.3217 113.074 28.2863 113.039 28.2863 112.968C28.2863 112.897 28.3217 112.861 28.3926 112.861C28.4635 112.861 28.499 112.897 28.499 112.968ZM28.9349 112.968C28.9349 113.039 28.8995 113.074 28.8286 113.074C28.7577 113.074 28.7222 113.039 28.7222 112.968C28.7222 112.897 28.7577 112.861 28.8286 112.861C28.8995 112.861 28.9349 112.897 28.9349 112.968ZM24.6499 112.968C24.6499 113.039 24.6144 113.074 24.5436 113.074C24.4727 113.074 24.4372 113.039 24.4372 112.968C24.4372 112.897 24.4727 112.861 24.5436 112.861C24.6144 112.861 24.6499 112.897 24.6499 112.968ZM25.0646 112.968C25.0646 113.039 25.0291 113.074 24.9582 113.074C24.8874 113.074 24.8519 113.039 24.8519 112.968C24.8519 112.897 24.8874 112.861 24.9582 112.861C25.0291 112.861 25.0646 112.897 25.0646 112.968ZM25.458 112.968C25.458 113.039 25.4225 113.074 25.3517 113.074C25.2808 113.074 25.2453 113.039 25.2453 112.968C25.2453 112.897 25.2808 112.861 25.3517 112.861C25.4225 112.861 25.458 112.897 25.458 112.968ZM27.223 112.968C27.223 113.039 27.1876 113.074 27.1167 113.074C27.0458 113.074 27.0104 113.039 27.0104 112.968C27.0104 112.897 27.0458 112.861 27.1167 112.861C27.1876 112.861 27.223 112.897 27.223 112.968ZM31.1359 112.968C31.1359 113.039 31.1004 113.074 31.0296 113.074C30.9587 113.074 30.9232 113.039 30.9232 112.968C30.9232 112.897 30.9587 112.861 31.0296 112.861C31.1004 112.861 31.1359 112.897 31.1359 112.968ZM31.5718 112.968C31.5718 113.039 31.5364 113.074 31.4655 113.074C31.3946 113.074 31.3592 113.039 31.3592 112.968C31.3592 112.897 31.3946 112.861 31.4655 112.861C31.5364 112.861 31.5718 112.897 31.5718 112.968ZM24.3628 115.934C24.3628 116.005 24.3274 116.041 24.2565 116.041C24.1856 116.041 24.1501 116.005 24.1501 115.934C24.1501 115.863 24.1856 115.828 24.2565 115.828C24.3274 115.828 24.3628 115.863 24.3628 115.934ZM24.3628 115.541C24.3628 115.612 24.3274 115.647 24.2565 115.647C24.1856 115.647 24.1501 115.612 24.1501 115.541C24.1501 115.47 24.1856 115.435 24.2565 115.435C24.3274 115.435 24.3628 115.47 24.3628 115.541ZM24.3628 115.147C24.3628 115.218 24.3274 115.254 24.2565 115.254C24.1856 115.254 24.1501 115.218 24.1501 115.147C24.1501 115.077 24.1856 115.041 24.2565 115.041C24.3274 115.041 24.3628 115.077 24.3628 115.147ZM24.3628 114.754C24.3628 114.825 24.3274 114.86 24.2565 114.86C24.1856 114.86 24.1501 114.825 24.1501 114.754C24.1501 114.683 24.1856 114.648 24.2565 114.648C24.3274 114.648 24.3628 114.683 24.3628 114.754ZM24.3628 114.361C24.3628 114.432 24.3274 114.467 24.2565 114.467C24.1856 114.467 24.1501 114.432 24.1501 114.361C24.1501 114.29 24.1856 114.254 24.2565 114.254C24.3274 114.254 24.3628 114.29 24.3628 114.361ZM24.3628 113.967C24.3628 114.038 24.3274 114.074 24.2565 114.074C24.1856 114.074 24.1501 114.038 24.1501 113.967C24.1501 113.896 24.1856 113.861 24.2565 113.861C24.3274 113.861 24.3628 113.896 24.3628 113.967ZM24.3628 113.574C24.3628 113.645 24.3274 113.68 24.2565 113.68C24.1856 113.68 24.1501 113.645 24.1501 113.574C24.1501 113.503 24.1856 113.467 24.2565 113.467C24.3274 113.467 24.3628 113.503 24.3628 113.574ZM24.3628 113.18C24.3628 113.251 24.3274 113.287 24.2565 113.287C24.1856 113.287 24.1501 113.251 24.1501 113.18C24.1501 113.109 24.1856 113.074 24.2565 113.074C24.3274 113.074 24.3628 113.109 24.3628 113.18ZM24.3628 112.787C24.3628 112.858 24.3274 112.893 24.2565 112.893C24.1856 112.893 24.1501 112.858 24.1501 112.787C24.1501 112.716 24.1856 112.681 24.2565 112.681C24.3274 112.681 24.3628 112.716 24.3628 112.787ZM24.3628 112.394C24.3628 112.464 24.3274 112.5 24.2565 112.5C24.1856 112.5 24.1501 112.464 24.1501 112.394C24.1501 112.323 24.1856 112.287 24.2565 112.287C24.3274 112.287 24.3628 112.323 24.3628 112.394ZM24.3628 112C24.3628 112.071 24.3274 112.106 24.2565 112.106C24.1856 112.106 24.1501 112.071 24.1501 112C24.1501 111.929 24.1856 111.894 24.2565 111.894C24.3274 111.894 24.3628 111.929 24.3628 112ZM24.3628 111.585C24.3628 111.656 24.3274 111.692 24.2565 111.692C24.1856 111.692 24.1501 111.656 24.1501 111.585C24.1501 111.515 24.1856 111.479 24.2565 111.479C24.3274 111.479 24.3628 111.515 24.3628 111.585ZM24.3628 111.192C24.3628 111.263 24.3274 111.298 24.2565 111.298C24.1856 111.298 24.1501 111.263 24.1501 111.192C24.1501 111.121 24.1856 111.086 24.2565 111.086C24.3274 111.086 24.3628 111.121 24.3628 111.192ZM24.3628 110.809C24.3628 110.88 24.3274 110.916 24.2565 110.916C24.1856 110.916 24.1501 110.88 24.1501 110.809C24.1501 110.738 24.1856 110.703 24.2565 110.703C24.3274 110.703 24.3628 110.738 24.3628 110.809ZM24.3628 110.416C24.3628 110.487 24.3274 110.522 24.2565 110.522C24.1856 110.522 24.1501 110.487 24.1501 110.416C24.1501 110.345 24.1856 110.31 24.2565 110.31C24.3274 110.31 24.3628 110.345 24.3628 110.416ZM24.3628 110.012C24.3628 110.083 24.3274 110.118 24.2565 110.118C24.1856 110.118 24.1501 110.083 24.1501 110.012C24.1501 109.941 24.1856 109.905 24.2565 109.905C24.3274 109.905 24.3628 109.941 24.3628 110.012ZM24.3096 105.841C24.3096 105.912 24.2742 105.947 24.2033 105.947C24.1324 105.947 24.097 105.912 24.097 105.841C24.097 105.77 24.1324 105.735 24.2033 105.735C24.2742 105.735 24.3096 105.77 24.3096 105.841ZM24.3096 106.277C24.3096 106.348 24.2742 106.383 24.2033 106.383C24.1324 106.383 24.097 106.348 24.097 106.277C24.097 106.206 24.1324 106.171 24.2033 106.171C24.2742 106.171 24.3096 106.206 24.3096 106.277ZM24.3734 106.702C24.3734 106.773 24.338 106.809 24.2671 106.809C24.1962 106.809 24.1608 106.773 24.1608 106.702C24.1608 106.631 24.1962 106.596 24.2671 106.596C24.338 106.596 24.3734 106.631 24.3734 106.702ZM24.4904 107.127C24.4904 107.198 24.455 107.234 24.3841 107.234C24.3132 107.234 24.2777 107.198 24.2777 107.127C24.2777 107.057 24.3132 107.021 24.3841 107.021C24.455 107.021 24.4904 107.057 24.4904 107.127ZM24.6605 107.532C24.6605 107.602 24.6251 107.638 24.5542 107.638C24.4833 107.638 24.4479 107.602 24.4479 107.532C24.4479 107.461 24.4833 107.425 24.5542 107.425C24.6251 107.425 24.6605 107.461 24.6605 107.532ZM24.9051 107.925C24.9051 107.996 24.8696 108.031 24.7987 108.031C24.7279 108.031 24.6924 107.996 24.6924 107.925C24.6924 107.854 24.7279 107.819 24.7987 107.819C24.8696 107.819 24.9051 107.854 24.9051 107.925ZM25.2028 108.276C25.2028 108.347 25.1674 108.382 25.0965 108.382C25.0256 108.382 24.9901 108.347 24.9901 108.276C24.9901 108.205 25.0256 108.17 25.0965 108.17C25.1674 108.17 25.2028 108.205 25.2028 108.276ZM25.543 108.584C25.543 108.655 25.5076 108.691 25.4367 108.691C25.3658 108.691 25.3304 108.655 25.3304 108.584C25.3304 108.513 25.3658 108.478 25.4367 108.478C25.5076 108.478 25.543 108.513 25.543 108.584ZM25.9046 108.839C25.9046 108.91 25.8691 108.946 25.7982 108.946C25.7273 108.946 25.6919 108.91 25.6919 108.839C25.6919 108.768 25.7273 108.733 25.7982 108.733C25.8691 108.733 25.9046 108.768 25.9046 108.839ZM26.2873 109.052C26.2873 109.123 26.2519 109.158 26.181 109.158C26.1101 109.158 26.0747 109.123 26.0747 109.052C26.0747 108.981 26.1101 108.946 26.181 108.946C26.2519 108.946 26.2873 108.981 26.2873 109.052ZM26.7127 109.212C26.7127 109.282 26.6772 109.318 26.6063 109.318C26.5354 109.318 26.5 109.282 26.5 109.212C26.5 109.141 26.5354 109.105 26.6063 109.105C26.6772 109.105 26.7127 109.141 26.7127 109.212ZM27.138 109.328C27.138 109.399 27.1025 109.435 27.0316 109.435C26.9607 109.435 26.9253 109.399 26.9253 109.328C26.9253 109.258 26.9607 109.222 27.0316 109.222C27.1025 109.222 27.138 109.258 27.138 109.328ZM27.5739 109.392C27.5739 109.463 27.5385 109.499 27.4676 109.499C27.3967 109.499 27.3612 109.463 27.3612 109.392C27.3612 109.321 27.3967 109.286 27.4676 109.286C27.5385 109.286 27.5739 109.321 27.5739 109.392ZM28.0311 109.403C28.0311 109.474 27.9957 109.509 27.9248 109.509C27.8539 109.509 27.8185 109.474 27.8185 109.403C27.8185 109.332 27.8539 109.297 27.9248 109.297C27.9957 109.297 28.0311 109.332 28.0311 109.403ZM28.4777 109.371C28.4777 109.442 28.4423 109.477 28.3714 109.477C28.3005 109.477 28.265 109.442 28.265 109.371C28.265 109.3 28.3005 109.265 28.3714 109.265C28.4423 109.265 28.4777 109.3 28.4777 109.371ZM28.9349 109.286C28.9349 109.357 28.8995 109.392 28.8286 109.392C28.7577 109.392 28.7222 109.357 28.7222 109.286C28.7222 109.215 28.7577 109.18 28.8286 109.18C28.8995 109.18 28.9349 109.215 28.9349 109.286ZM29.3602 109.137C29.3602 109.208 29.3248 109.243 29.2539 109.243C29.183 109.243 29.1476 109.208 29.1476 109.137C29.1476 109.066 29.183 109.031 29.2539 109.031C29.3248 109.031 29.3602 109.066 29.3602 109.137ZM29.7536 108.956C29.7536 109.027 29.7182 109.063 29.6473 109.063C29.5764 109.063 29.541 109.027 29.541 108.956C29.541 108.885 29.5764 108.85 29.6473 108.85C29.7182 108.85 29.7536 108.885 29.7536 108.956ZM30.1258 108.744C30.1258 108.815 30.0903 108.85 30.0194 108.85C29.9486 108.85 29.9131 108.815 29.9131 108.744C29.9131 108.673 29.9486 108.637 30.0194 108.637C30.0903 108.637 30.1258 108.673 30.1258 108.744ZM30.466 108.467C30.466 108.538 30.4306 108.574 30.3597 108.574C30.2888 108.574 30.2534 108.538 30.2534 108.467C30.2534 108.396 30.2888 108.361 30.3597 108.361C30.4306 108.361 30.466 108.396 30.466 108.467ZM30.7744 108.159C30.7744 108.23 30.7389 108.265 30.668 108.265C30.5972 108.265 30.5617 108.23 30.5617 108.159C30.5617 108.088 30.5972 108.053 30.668 108.053C30.7389 108.053 30.7744 108.088 30.7744 108.159ZM31.0402 107.829C31.0402 107.9 31.0048 107.936 30.9339 107.936C30.863 107.936 30.8275 107.9 30.8275 107.829C30.8275 107.758 30.863 107.723 30.9339 107.723C31.0048 107.723 31.0402 107.758 31.0402 107.829ZM31.2635 107.468C31.2635 107.539 31.228 107.574 31.1572 107.574C31.0863 107.574 31.0508 107.539 31.0508 107.468C31.0508 107.397 31.0863 107.361 31.1572 107.361C31.228 107.361 31.2635 107.397 31.2635 107.468ZM31.4549 107.053C31.4549 107.124 31.4194 107.159 31.3485 107.159C31.2777 107.159 31.2422 107.124 31.2422 107.053C31.2422 106.982 31.2777 106.947 31.3485 106.947C31.4194 106.947 31.4549 106.982 31.4549 107.053ZM31.5718 106.67C31.5718 106.741 31.5364 106.777 31.4655 106.777C31.3946 106.777 31.3592 106.741 31.3592 106.67C31.3592 106.599 31.3946 106.564 31.4655 106.564C31.5364 106.564 31.5718 106.599 31.5718 106.67ZM31.625 106.266C31.625 106.337 31.5896 106.373 31.5187 106.373C31.4478 106.373 31.4123 106.337 31.4123 106.266C31.4123 106.195 31.4478 106.16 31.5187 106.16C31.5896 106.16 31.625 106.195 31.625 106.266ZM31.625 105.862C31.625 105.933 31.5896 105.969 31.5187 105.969C31.4478 105.969 31.4123 105.933 31.4123 105.862C31.4123 105.791 31.4478 105.756 31.5187 105.756C31.5896 105.756 31.625 105.791 31.625 105.862ZM31.5718 105.458C31.5718 105.529 31.5364 105.564 31.4655 105.564C31.3946 105.564 31.3592 105.529 31.3592 105.458C31.3592 105.387 31.3946 105.352 31.4655 105.352C31.5364 105.352 31.5718 105.387 31.5718 105.458ZM31.4549 105.033C31.4549 105.104 31.4194 105.139 31.3485 105.139C31.2777 105.139 31.2422 105.104 31.2422 105.033C31.2422 104.962 31.2777 104.927 31.3485 104.927C31.4194 104.927 31.4549 104.962 31.4549 105.033ZM31.2847 104.629C31.2847 104.7 31.2493 104.735 31.1784 104.735C31.1075 104.735 31.0721 104.7 31.0721 104.629C31.0721 104.558 31.1075 104.522 31.1784 104.522C31.2493 104.522 31.2847 104.558 31.2847 104.629ZM31.0615 104.267C31.0615 104.338 31.026 104.374 30.9551 104.374C30.8842 104.374 30.8488 104.338 30.8488 104.267C30.8488 104.196 30.8842 104.161 30.9551 104.161C31.026 104.161 31.0615 104.196 31.0615 104.267ZM30.7956 103.938C30.7956 104.009 30.7602 104.044 30.6893 104.044C30.6184 104.044 30.583 104.009 30.583 103.938C30.583 103.867 30.6184 103.831 30.6893 103.831C30.7602 103.831 30.7956 103.867 30.7956 103.938ZM30.4873 103.629C30.4873 103.7 30.4518 103.736 30.381 103.736C30.3101 103.736 30.2746 103.7 30.2746 103.629C30.2746 103.558 30.3101 103.523 30.381 103.523C30.4518 103.523 30.4873 103.558 30.4873 103.629ZM30.147 103.353C30.147 103.424 30.1116 103.459 30.0407 103.459C29.9698 103.459 29.9344 103.424 29.9344 103.353C29.9344 103.282 29.9698 103.247 30.0407 103.247C30.1116 103.247 30.147 103.282 30.147 103.353ZM29.7749 103.14C29.7749 103.211 29.7394 103.247 29.6686 103.247C29.5977 103.247 29.5622 103.211 29.5622 103.14C29.5622 103.069 29.5977 103.034 29.6686 103.034C29.7394 103.034 29.7749 103.069 29.7749 103.14ZM29.3815 102.959C29.3815 103.03 29.346 103.066 29.2752 103.066C29.2043 103.066 29.1688 103.03 29.1688 102.959C29.1688 102.889 29.2043 102.853 29.2752 102.853C29.346 102.853 29.3815 102.889 29.3815 102.959ZM28.9562 102.811C28.9562 102.881 28.9207 102.917 28.8498 102.917C28.779 102.917 28.7435 102.881 28.7435 102.811C28.7435 102.74 28.779 102.704 28.8498 102.704C28.9207 102.704 28.9562 102.74 28.9562 102.811ZM28.499 102.726C28.499 102.796 28.4635 102.832 28.3926 102.832C28.3217 102.832 28.2863 102.796 28.2863 102.726C28.2863 102.655 28.3217 102.619 28.3926 102.619C28.4635 102.619 28.499 102.655 28.499 102.726ZM28.0524 102.694C28.0524 102.765 28.0169 102.8 27.9461 102.8C27.8752 102.8 27.8397 102.765 27.8397 102.694C27.8397 102.623 27.8752 102.587 27.9461 102.587C28.0169 102.587 28.0524 102.623 28.0524 102.694ZM27.5952 102.704C27.5952 102.775 27.5597 102.811 27.4888 102.811C27.418 102.811 27.3825 102.775 27.3825 102.704C27.3825 102.633 27.418 102.598 27.4888 102.598C27.5597 102.598 27.5952 102.633 27.5952 102.704ZM27.1592 102.768C27.1592 102.839 27.1238 102.874 27.0529 102.874C26.982 102.874 26.9466 102.839 26.9466 102.768C26.9466 102.697 26.982 102.662 27.0529 102.662C27.1238 102.662 27.1592 102.697 27.1592 102.768ZM26.7339 102.885C26.7339 102.956 26.6985 102.991 26.6276 102.991C26.5567 102.991 26.5213 102.956 26.5213 102.885C26.5213 102.814 26.5567 102.779 26.6276 102.779C26.6985 102.779 26.7339 102.814 26.7339 102.885ZM26.3086 103.045C26.3086 103.115 26.2732 103.151 26.2023 103.151C26.1314 103.151 26.0959 103.115 26.0959 103.045C26.0959 102.974 26.1314 102.938 26.2023 102.938C26.2732 102.938 26.3086 102.974 26.3086 103.045ZM25.9258 103.257C25.9258 103.328 25.8904 103.363 25.8195 103.363C25.7486 103.363 25.7132 103.328 25.7132 103.257C25.7132 103.186 25.7486 103.151 25.8195 103.151C25.8904 103.151 25.9258 103.186 25.9258 103.257ZM25.5643 103.512C25.5643 103.583 25.5289 103.619 25.458 103.619C25.3871 103.619 25.3517 103.583 25.3517 103.512C25.3517 103.441 25.3871 103.406 25.458 103.406C25.5289 103.406 25.5643 103.441 25.5643 103.512ZM25.2028 103.831C25.2028 103.902 25.1674 103.938 25.0965 103.938C25.0256 103.938 24.9901 103.902 24.9901 103.831C24.9901 103.76 25.0256 103.725 25.0965 103.725C25.1674 103.725 25.2028 103.76 25.2028 103.831ZM24.9051 104.182C24.9051 104.253 24.8696 104.289 24.7987 104.289C24.7279 104.289 24.6924 104.253 24.6924 104.182C24.6924 104.111 24.7279 104.076 24.7987 104.076C24.8696 104.076 24.9051 104.111 24.9051 104.182ZM24.6605 104.576C24.6605 104.647 24.6251 104.682 24.5542 104.682C24.4833 104.682 24.4479 104.647 24.4479 104.576C24.4479 104.505 24.4833 104.469 24.5542 104.469C24.6251 104.469 24.6605 104.505 24.6605 104.576ZM24.4904 104.98C24.4904 105.051 24.455 105.086 24.3841 105.086C24.3132 105.086 24.2777 105.051 24.2777 104.98C24.2777 104.909 24.3132 104.873 24.3841 104.873C24.455 104.873 24.4904 104.909 24.4904 104.98ZM24.3628 105.416C24.3628 105.487 24.3274 105.522 24.2565 105.522C24.1856 105.522 24.1501 105.487 24.1501 105.416C24.1501 105.345 24.1856 105.309 24.2565 105.309C24.3274 105.309 24.3628 105.345 24.3628 105.416ZM31.6782 95.3298C31.6782 95.8331 31.5718 96.301 31.3592 96.7334C31.1394 97.1658 30.8453 97.5415 30.4767 97.8604C30.1081 98.1794 29.6969 98.4275 29.2433 98.6047C28.7896 98.7749 28.3217 98.8599 27.8397 98.8599C27.3294 98.8599 26.8473 98.7749 26.3937 98.6047C25.9329 98.4275 25.5253 98.183 25.1709 97.8711C24.8165 97.5592 24.5365 97.1906 24.3309 96.7653C24.1253 96.34 24.0226 95.8757 24.0226 95.3724C24.0226 94.6281 24.175 94.022 24.4798 93.5542C24.7846 93.0863 25.1815 92.7319 25.6706 92.4909L26.0534 93.0651C25.5856 93.3061 25.2418 93.6286 25.022 94.0326C24.8023 94.4367 24.6924 94.8868 24.6924 95.383C24.6924 95.8012 24.781 96.1805 24.9582 96.5207C25.1355 96.8539 25.3729 97.141 25.6706 97.382C25.9684 97.623 26.3051 97.8073 26.6808 97.9349C27.0564 98.0554 27.4463 98.1156 27.8504 98.1156C28.2757 98.1156 28.6797 98.0447 29.0625 97.903C29.4382 97.7612 29.7749 97.5592 30.0726 97.2969C30.3632 97.0346 30.5936 96.7334 30.7637 96.3931C30.9268 96.0458 31.0083 95.6736 31.0083 95.2767C31.0083 94.8159 30.8949 94.38 30.668 93.9688C30.4341 93.5577 30.0762 93.1643 29.5941 92.7886L30.381 92.7886C31.2458 93.5045 31.6782 94.3516 31.6782 95.3298ZM28.4883 92.9056L28.4883 94.5855L27.9142 94.5855L27.9142 92.2782L31.625 92.2782L31.625 92.9056L28.4883 92.9056ZM30.9658 85.6772L31.625 85.6772L31.625 90.749L24.0757 90.749L24.0757 85.7729L24.735 85.7729L24.735 90.0047L27.4569 90.0047L27.4569 86.3151L28.0843 86.3151L28.0843 90.0047L30.9658 90.0047L30.9658 85.6772ZM24.735 78.9107L24.735 81.6008L31.625 81.6008L31.625 82.3451L24.735 82.3451L24.735 85.0352L24.0757 85.0352L24.0757 78.9107L24.735 78.9107ZM25.4899 70.9687C25.3694 71.075 25.263 71.1991 25.1709 71.3409C25.0717 71.4826 24.9866 71.6421 24.9157 71.8193C24.8448 71.9965 24.7881 72.1879 24.7456 72.3935C24.7031 72.592 24.6818 72.8046 24.6818 73.0315C24.6818 73.6907 24.8094 74.1763 25.0646 74.4882C25.3127 74.793 25.6529 74.9454 26.0853 74.9454C26.383 74.9454 26.617 74.8745 26.7871 74.7327C26.9572 74.5839 27.0954 74.3535 27.2018 74.0416C27.3081 73.7297 27.418 73.3327 27.5314 72.8507C27.6448 72.312 27.7795 71.8477 27.9354 71.4578C28.0914 71.068 28.304 70.7667 28.5734 70.554C28.8357 70.3414 29.1936 70.235 29.6473 70.235C29.9946 70.235 30.2959 70.3024 30.5511 70.4371C30.8063 70.5718 31.0189 70.7596 31.1891 71.0006C31.3592 71.2416 31.4868 71.5287 31.5718 71.8619C31.6498 72.195 31.6888 72.5601 31.6888 72.957C31.6888 73.3469 31.6498 73.7226 31.5718 74.0841C31.4868 74.4385 31.3663 74.7752 31.2103 75.0942C31.0473 75.4132 30.8417 75.7109 30.5936 75.9874L29.9875 75.6152C30.1293 75.4806 30.264 75.3211 30.3916 75.1368C30.5121 74.9454 30.622 74.7363 30.7212 74.5094C30.8204 74.2755 30.8984 74.0274 30.9551 73.7651C31.0047 73.4958 31.0296 73.2193 31.0296 72.9358C31.0296 72.3333 30.9197 71.8654 30.6999 71.5322C30.4802 71.192 30.1541 71.0219 29.7217 71.0219C29.4098 71.0219 29.1617 71.1069 28.9774 71.2771C28.786 71.4472 28.6301 71.7024 28.5096 72.0426C28.3891 72.3829 28.2721 72.8011 28.1587 73.2973C28.0382 73.8218 27.9035 74.2649 27.7547 74.6264C27.6058 74.9879 27.4109 75.2608 27.1699 75.4451C26.9218 75.6223 26.5957 75.7109 26.1916 75.7109C25.7238 75.7109 25.3304 75.5975 25.0114 75.3707C24.6853 75.1368 24.4408 74.8178 24.2777 74.4137C24.1076 74.0097 24.0226 73.5454 24.0226 73.0208C24.0226 72.6877 24.058 72.3793 24.1289 72.0958C24.1927 71.8052 24.2884 71.5393 24.416 71.2983C24.5436 71.0502 24.7031 70.8199 24.8944 70.6072L25.4899 70.9687ZM24.7349 63.5742L24.7349 66.2643L31.625 66.2643L31.625 67.0086L24.7349 67.0086L24.7349 69.6987L24.0757 69.6987L24.0757 63.5742L24.7349 63.5742ZM24.0757 60.831L24.0757 60.2037L31.625 57.067L31.625 57.8538L29.2645 58.8321L29.2645 62.2239L31.625 63.1915L31.625 63.989L24.0757 60.831ZM28.6797 59.0022L24.9476 60.5227L28.6797 62.0644L28.6797 59.0022ZM31.625 55.9848L24.0757 55.9848L24.0757 52.795C24.0757 52.4689 24.1431 52.1712 24.2777 51.9018C24.4124 51.6324 24.5967 51.3985 24.8306 51.2C25.0575 50.9945 25.3127 50.8385 25.5962 50.7322C25.8727 50.6188 26.1562 50.5621 26.4468 50.5621C26.8083 50.5621 27.1486 50.633 27.4676 50.7747C27.7866 50.9094 28.0559 51.1043 28.2757 51.3595C28.4954 51.6076 28.6407 51.9018 28.7116 52.2421L31.625 50.3919L31.625 51.2319L28.8392 53.0076L28.8392 55.2405L31.625 55.2405L31.625 55.9848ZM28.18 55.2405L28.18 52.7737C28.18 52.476 28.0985 52.2172 27.9354 51.9975C27.7724 51.7778 27.5597 51.6076 27.2975 51.4871C27.0281 51.3666 26.7445 51.3064 26.4468 51.3064C26.142 51.3064 25.862 51.3773 25.6068 51.519C25.3446 51.6537 25.1355 51.838 24.9795 52.0719C24.8165 52.2988 24.7349 52.554 24.7349 52.8375L24.7349 55.2405L28.18 55.2405ZM24.7349 43.7519L24.7349 46.442L31.625 46.442L31.625 47.1863L24.7349 47.1863L24.7349 49.8764L24.0757 49.8764L24.0757 43.7519L24.7349 43.7519ZM30.9658 37.5493L31.625 37.5493L31.625 42.6211L24.0757 42.6211L24.0757 37.645L24.7349 37.645L24.7349 41.8768L27.4569 41.8768L27.4569 38.1873L28.0843 38.1873L28.0843 41.8768L30.9658 41.8768L30.9658 37.5493ZM31.625 36.1418L24.0757 36.1418L24.0757 33.5793C24.0757 32.7783 24.2458 32.1119 24.5861 31.5803C24.9192 31.0416 25.3729 30.6375 25.9471 30.3682C26.5142 30.0988 27.145 29.9641 27.8397 29.9641C28.6053 29.9641 29.2716 30.113 29.8387 30.4107C30.4058 30.7013 30.8453 31.1196 31.1572 31.6654C31.469 32.2041 31.625 32.8421 31.625 33.5793L31.625 36.1418ZM27.8397 30.7084C27.2372 30.7084 26.702 30.8218 26.2342 31.0487C25.7663 31.2684 25.4013 31.5909 25.139 32.0162C24.8696 32.4416 24.7349 32.9626 24.7349 33.5793L24.7349 35.3975L30.9658 35.3975L30.9658 33.5793C30.9658 32.9555 30.8275 32.4309 30.5511 32.0056C30.2746 31.5803 29.9025 31.2578 29.4346 31.038C28.9597 30.8183 28.4281 30.7084 27.8397 30.7084ZM29.4772 27.8499C29.1653 27.8499 28.8995 27.818 28.6797 27.7542C28.4529 27.6833 28.2579 27.584 28.0949 27.4564C27.9319 27.3218 27.7901 27.1516 27.6696 26.9461C27.5845 26.8114 27.4959 26.659 27.4038 26.4889C27.3116 26.3116 27.2053 26.1486 27.0848 25.9998C26.9572 25.8438 26.8048 25.7162 26.6276 25.617C26.4433 25.5177 26.2235 25.4681 25.9684 25.4681C25.6565 25.4681 25.4013 25.539 25.2028 25.6808C24.9972 25.8154 24.8448 25.9927 24.7456 26.2124C24.6393 26.4322 24.5861 26.6661 24.5861 26.9142C24.5861 27.1623 24.6357 27.3997 24.7349 27.6266C24.8271 27.8463 24.9547 28.0412 25.1177 28.2114C25.2808 28.3815 25.4651 28.5197 25.6706 28.626L25.3516 29.1258C25.061 28.9911 24.8129 28.8104 24.6074 28.5835C24.4018 28.3496 24.2458 28.0873 24.1395 27.7967C24.0332 27.5061 23.98 27.2083 23.98 26.9035C23.98 26.6413 24.0226 26.3861 24.1076 26.138C24.1856 25.8899 24.3096 25.6701 24.4798 25.4787C24.6499 25.2803 24.8625 25.1243 25.1177 25.0109C25.3658 24.8904 25.6635 24.8301 26.0109 24.8301C26.2944 24.8301 26.5354 24.8691 26.7339 24.9471C26.9253 25.0251 27.0919 25.135 27.2337 25.2767C27.3683 25.4114 27.4888 25.5638 27.5952 25.7339C27.7015 25.9041 27.8043 26.0813 27.9035 26.2656C27.9957 26.4286 28.0985 26.5846 28.2119 26.7334C28.3253 26.8823 28.4812 27.0028 28.6797 27.0949C28.8711 27.1871 29.1369 27.2332 29.4772 27.2332L29.4772 27.8499ZM31.625 27.8392L30.4873 27.8392L30.4873 27.2119L31.625 27.2119L31.625 27.8392Z" fill="white"/>
<rect x="5" y="178.873" width="47" height="47" rx="9" fill="white"/>
<path d="M35.839 197.971L35.8434 209.716L24.0934 209.715L24.0919 208.248L33.3363 208.248L21.1559 196.067L22.1943 195.029L34.3747 207.209L34.3747 197.966L35.839 197.971Z" fill="#121212"/>
</svg>
